<svg width="140" height="40" viewBox="0 0 140 40" fill="none" xmlns="http://www.w3.org/2000/svg">
<rect width="140" height="40" rx="8" fill="#03428D"/>
<path d="M91.8875 22.6883C91.8875 23.2055 91.6812 23.5159 91.3719 23.8262C91.0625 24.1366 90.5469 24.24 89.8251 24.24H89.1033L89.3095 25.3779H90.2376C90.65 25.3779 91.0625 25.2745 91.3719 25.171C91.6812 25.0676 91.9906 24.7573 92.1968 24.5504C92.4031 24.24 92.6093 23.9297 92.7124 23.6193C92.8155 23.2055 92.9187 22.8952 92.9187 22.4814V19.2745H91.7843V22.6883H91.8875Z" fill="white"/>
<path d="M92.5062 16.2742C92.2999 16.2742 92.0937 16.3777 91.8874 16.4811C91.6812 16.688 91.6812 16.7915 91.6812 17.1018C91.6812 17.3087 91.7843 17.5156 91.8874 17.7225C92.0937 17.9294 92.2999 17.9294 92.5062 17.9294C92.7124 17.9294 92.9186 17.8259 93.1249 17.7225C93.3311 17.5156 93.3311 17.3087 93.3311 17.1018C93.3311 16.8949 93.228 16.688 93.1249 16.4811C92.9186 16.3777 92.7124 16.2742 92.5062 16.2742Z" fill="white"/>
<path d="M95.806 15.5508H94.7748V22.5853H95.806V15.5508Z" fill="white"/>
<path d="M103.024 18.2396C103.23 18.2396 103.333 18.1362 103.54 18.0328C103.643 17.9293 103.746 17.7224 103.746 17.5155C103.746 17.3086 103.643 17.1017 103.54 16.9983C103.436 16.8948 103.23 16.7914 103.024 16.7914C102.818 16.7914 102.612 16.8948 102.508 16.9983C102.405 17.1017 102.302 17.3086 102.302 17.5155C102.302 17.7224 102.405 17.8259 102.508 18.0328C102.612 18.1362 102.818 18.2396 103.024 18.2396Z" fill="white"/>
<path d="M104.984 18.2396C105.19 18.2396 105.396 18.1362 105.499 18.0328C105.602 17.9293 105.705 17.7224 105.705 17.5155C105.705 17.3086 105.602 17.1017 105.499 16.9983C105.396 16.8948 105.19 16.7914 104.984 16.7914C104.777 16.7914 104.571 16.8948 104.468 16.9983C104.365 17.1017 104.262 17.3086 104.262 17.5155C104.262 17.7224 104.365 17.8259 104.468 18.0328C104.571 18.1362 104.777 18.2396 104.984 18.2396Z" fill="white"/>
<path d="M112.408 16.6887C112.614 16.6887 112.82 16.5852 113.026 16.4818C113.233 16.2749 113.233 16.068 113.233 15.8611C113.233 15.6542 113.13 15.4473 113.026 15.2404C112.82 15.0335 112.717 15.0335 112.408 15.0335C112.201 15.0335 111.995 15.137 111.789 15.2404C111.583 15.4473 111.583 15.5508 111.583 15.8611C111.583 16.068 111.686 16.2749 111.789 16.4818C111.995 16.5852 112.201 16.6887 112.408 16.6887Z" fill="white"/>
<path d="M114.058 17.9297C113.852 17.7228 113.646 17.516 113.439 17.4125C113.233 17.3091 112.924 17.2056 112.614 17.2056C112.305 17.2056 112.099 17.2056 111.893 17.3091C111.686 17.4125 111.48 17.516 111.274 17.7228C111.068 17.9297 110.964 18.0332 110.861 18.3435C110.758 18.5504 110.758 18.7573 110.758 19.0677C110.758 19.5849 110.861 19.8953 111.068 20.2056C111.274 20.5159 111.686 20.7228 112.099 20.7228H113.542C113.542 20.9297 113.542 21.0332 113.439 21.2401C113.336 21.3435 113.13 21.447 112.821 21.447H109.727C109.521 21.447 109.315 21.3435 109.108 21.2401C108.902 21.1366 108.799 20.9297 108.799 20.6194V19.0677H107.665V20.6194C107.665 20.9297 107.665 21.1366 107.562 21.2401C107.458 21.3435 107.252 21.447 106.943 21.447H101.684C101.374 21.447 101.168 21.3435 101.065 21.2401C100.859 21.1366 100.756 20.9297 100.756 20.6194V19.1711H99.6215V20.8263C99.6215 21.3435 99.7246 21.8608 100.034 22.1711C100.343 22.4815 100.653 22.5849 101.168 22.5849H106.943C107.355 22.5849 107.665 22.4815 107.974 22.1711C108.18 22.378 108.386 22.4815 108.696 22.4815C108.902 22.5849 109.211 22.5849 109.521 22.5849H112.821C113.13 22.5849 113.336 22.4815 113.542 22.378C113.749 22.2746 113.955 22.0677 114.058 21.8608C114.161 21.6539 114.264 21.447 114.367 21.1366C114.47 20.8263 114.47 20.6194 114.47 20.309V19.5849C114.47 19.2746 114.47 18.9642 114.367 18.7573C114.264 18.447 114.161 18.1366 114.058 17.9297ZM112.305 19.5849C112.202 19.5849 111.996 19.5849 111.789 19.4815C111.583 19.378 111.583 19.2746 111.583 19.0677C111.583 18.8608 111.686 18.6539 111.789 18.5504C111.893 18.447 112.099 18.3435 112.408 18.3435C112.614 18.3435 112.717 18.3435 112.821 18.447C112.924 18.5504 113.027 18.6539 113.13 18.7573C113.233 18.8608 113.336 19.0677 113.336 19.1711C113.439 19.378 113.439 19.4815 113.439 19.6884L112.305 19.5849Z" fill="white"/>
<path d="M118.492 23.8267C118.286 23.8267 118.079 23.9301 117.976 24.0336C117.873 24.137 117.77 24.3439 117.77 24.5508C117.77 24.7577 117.873 24.9646 117.976 25.068C118.079 25.1715 118.286 25.2749 118.492 25.2749C118.698 25.2749 118.904 25.1715 119.007 25.068C119.11 24.9646 119.214 24.7577 119.214 24.5508C119.214 24.3439 119.11 24.2405 119.007 24.0336C118.904 23.8267 118.698 23.8267 118.492 23.8267Z" fill="white"/>
<path d="M120.657 20.6198C120.657 20.7232 120.657 20.8267 120.657 20.9301C120.657 21.0336 120.657 21.137 120.554 21.2405C120.451 21.3439 120.451 21.3439 120.348 21.4474C120.245 21.4474 120.142 21.5508 119.935 21.5508H118.182C117.873 21.5508 117.77 21.4474 117.564 21.3439C117.461 21.2405 117.357 21.0336 117.357 20.6198V15.5508H116.223V20.8267C116.223 21.4474 116.429 21.9646 116.739 22.1715C117.048 22.4818 117.461 22.5853 118.079 22.5853H120.245C120.76 22.5853 121.173 22.3784 121.482 22.068C121.791 21.7577 121.895 21.3439 121.895 20.8267V19.1715H120.76V20.6198H120.657Z" fill="white"/>
<path d="M120.348 23.8267C120.141 23.8267 119.935 23.9301 119.832 24.0336C119.729 24.137 119.626 24.3439 119.626 24.5508C119.626 24.7577 119.729 24.9646 119.832 25.068C119.935 25.1715 120.141 25.2749 120.348 25.2749C120.554 25.2749 120.657 25.1715 120.863 25.068C120.966 24.9646 121.069 24.7577 121.069 24.5508C121.069 24.3439 120.966 24.2405 120.863 24.0336C120.76 23.8267 120.554 23.8267 120.348 23.8267Z" fill="white"/>
<path d="M124.266 22.6883C124.266 23.2055 124.06 23.5159 123.751 23.8262C123.441 24.1366 122.926 24.24 122.204 24.24H121.895L122.101 25.3779H122.616C123.029 25.3779 123.441 25.2745 123.751 25.171C124.06 25.0676 124.369 24.8607 124.576 24.5504C124.782 24.24 124.988 23.9297 125.091 23.6193C125.194 23.2055 125.298 22.8952 125.298 22.4814V19.2745H124.163V22.6883H124.266Z" fill="white"/>
<path d="M131.897 20.5156C131.794 20.3087 131.691 20.1018 131.484 19.8949L129.01 17.3087L128.288 18.0328L130.763 20.619C130.866 20.7225 130.969 20.9294 130.969 21.0328C130.969 21.1362 130.969 21.2397 130.866 21.3431C130.763 21.4466 130.659 21.4466 130.453 21.4466H126.844L126.947 22.5845H130.35C130.866 22.5845 131.278 22.4811 131.588 22.1707C131.897 21.8604 132 21.55 132 21.1362C132 20.9294 132 20.7225 131.897 20.5156Z" fill="white"/>
<path d="M61.1579 23.3103C59.9205 23.3103 58.9925 22.3793 58.9925 21.1379V10.1724C58.9925 8.93103 59.9205 8 61.1579 8C62.3953 8 63.3234 8.93103 63.3234 10.1724V21.0345C63.3234 22.2758 62.3953 23.3103 61.1579 23.3103Z" fill="white"/>
<path d="M53.6307 25.4834H48.1655C46.9281 25.4834 46 24.5524 46 23.311C46 22.0696 46.9281 21.1386 48.1655 21.1386H52.4964V14.6214C52.4964 13.38 53.4245 12.449 54.6619 12.449C55.8993 12.449 56.8274 13.38 56.8274 14.6214V22.2765C56.8274 24.0351 55.3837 25.4834 53.6307 25.4834Z" fill="white"/>
<path d="M66.6238 29.8276H61.2616C60.0242 29.8276 59.0961 28.8966 59.0961 27.6552C59.0961 26.4138 60.0242 25.4828 61.2616 25.4828H65.5926V18.9656C65.5926 17.7242 66.5206 16.7931 67.7581 16.7931C68.9955 16.7931 69.9235 17.7242 69.9235 18.9656V26.6207C69.8204 28.3793 68.3768 29.8276 66.6238 29.8276Z" fill="white"/>
<path d="M80.6479 25.482H75.2858C73.4296 25.482 71.986 24.0337 71.986 22.1717V12.4476C71.986 11.2062 72.914 10.2751 74.1515 10.2751C75.3889 10.2751 76.3169 11.2062 76.3169 12.4476V21.1372H80.6479C81.8853 21.1372 82.8134 22.0682 82.8134 23.3096C82.8134 24.4475 81.8853 25.482 80.6479 25.482Z" fill="white"/>
<path d="M67.6551 14.62C68.8511 14.62 69.8206 13.6473 69.8206 12.4476C69.8206 11.2478 68.8511 10.2751 67.6551 10.2751C66.4591 10.2751 65.4896 11.2478 65.4896 12.4476C65.4896 13.6473 66.4591 14.62 67.6551 14.62Z" fill="white"/>
<path d="M74.1515 32C75.3474 32 76.3169 31.0274 76.3169 29.8276C76.3169 28.6278 75.3474 27.6552 74.1515 27.6552C72.9555 27.6552 71.986 28.6278 71.986 29.8276C71.986 31.0274 72.9555 32 74.1515 32Z" fill="white"/>
<rect x="10" y="4" width="32" height="32" rx="16" fill="#03428D"/>
<path d="M37.8222 15.8857C37.4667 15.6286 36.7556 15.2857 35.3333 14.9429C34.8889 14.8571 34.4444 14.7714 33.9111 14.6857C33.2 14.6 32.4889 14.5143 31.5111 14.4286H31.4222C31.2444 14 31.0667 13.5714 30.8889 13.1429C30.8 12.8857 30.7111 12.6286 30.5333 12.3714V12.2857C30.1778 11.3429 29.7333 10.4 29.0222 9.54286C28.1333 8.51429 27.0667 8 26 8C24.9333 8 23.8667 8.51429 23.0667 9.45714C22.2667 10.3143 21.9111 11.3429 21.4667 12.2857V12.3714C21.3778 12.6286 21.2 12.8857 21.1111 13.1429C20.9333 13.5714 20.7556 14 20.5778 14.4286H20.4889C19.6 14.5143 18.8 14.6 18.0889 14.6857C17.5556 14.7714 17.0222 14.8571 16.6667 14.9429C15.2444 15.2857 14.5333 15.6286 14.1778 15.8857C14.0889 15.9714 14 16.1429 14 16.3143L14.0889 17.1714C14.2667 18.4571 14.4444 19.9143 14.8 21.4571C15.0667 22.6571 15.3333 23.8571 15.7778 24.9714C15.9556 25.4 16.1333 25.8286 16.3111 26.2571C17.7333 29 20.3111 31.0571 23.5111 31.7429C24.3111 31.9143 25.1111 32 26 32C26.8 32 27.6889 31.9143 28.4889 31.7429C31.6889 31.0571 34.3556 28.9143 35.7778 26.0857C35.9556 25.7429 36.1333 25.4 36.2222 25.0571C37.2 22.4857 37.5556 19.7429 37.9111 17.5143L38 16.3143C38 16.1429 37.9111 15.9714 37.8222 15.8857ZM26 14.1714C24.8444 14.1714 23.8667 14.1714 22.9778 14.2571C23.0667 14.1714 23.0667 14 23.1556 13.9143C23.2444 13.6571 23.4222 13.4 23.5111 13.1429C23.7778 12.5429 24.0444 11.9429 24.3111 11.4286C24.4889 11.1714 24.5778 11 24.7556 10.7429C25.0222 10.4857 25.4667 10.0571 26.0889 10.0571C26.7111 10.0571 27.1556 10.4857 27.4222 10.7429C27.6 10.9143 27.7778 11.1714 27.8667 11.4286C28.1333 11.9429 28.4 12.5429 28.6667 13.1429C28.7556 13.4 28.8444 13.6571 29.0222 13.9143C29.1111 14 29.1111 14.1714 29.2 14.2571C28.1333 14.2571 27.1556 14.1714 26 14.1714Z" fill="url(#paint0_linear_57050_15122)"/>
<defs>
<linearGradient id="paint0_linear_57050_15122" x1="26" y1="8" x2="26" y2="32" gradientUnits="userSpaceOnUse">
<stop stop-color="#96D600"/>
<stop offset="1" stop-color="#009A52"/>
</linearGradient>
</defs>
</svg>
