<svg width="24" height="24" viewBox="0 0 24 24" fill="none" xmlns="http://www.w3.org/2000/svg">
<path d="M20.3906 17.4268C18.6062 20.1759 15.5087 22 11.9961 22C8.88555 21.9999 6.10157 20.5698 4.26562 18.334C4.55299 18.3879 4.84193 18.4365 5.13086 18.4814C5.39766 18.5229 5.6662 18.5527 5.93457 18.582C6.14662 18.6051 6.35982 18.6219 6.57227 18.6367C6.7586 18.6496 6.9455 18.6557 7.13184 18.665C7.14655 18.6658 7.16086 18.6719 7.1748 18.6758H8.27246C8.28724 18.6715 8.30163 18.6658 8.31641 18.665C8.48231 18.6584 8.64952 18.6568 8.81543 18.6455C9.16466 18.6205 9.51425 18.5902 9.8623 18.5449C10.2031 18.5008 10.543 18.446 10.8799 18.3789C11.3682 18.2813 11.8508 18.1602 12.3262 18.0117C12.7022 17.8946 13.073 17.7619 13.4385 17.6143C13.5568 17.5662 13.6791 17.5594 13.8037 17.5723C13.9154 17.584 14.027 17.5971 14.1387 17.6064C14.3133 17.6217 14.4885 17.6348 14.6631 17.6465C14.7868 17.6543 14.9104 17.6596 15.0342 17.6631C15.2391 17.6689 15.4436 17.6721 15.6484 17.6768C15.7809 17.6795 15.9141 17.6867 16.0469 17.6855C16.2906 17.6844 16.5344 17.6773 16.7773 17.6719C16.9053 17.6684 17.0341 17.6637 17.1621 17.6582C17.3643 17.6504 17.5663 17.642 17.7686 17.6318C17.9166 17.6244 18.0645 17.6154 18.2129 17.6045C18.4346 17.5881 18.6566 17.5703 18.8779 17.5527C19.1127 17.5336 19.3488 17.5156 19.584 17.4961C19.848 17.4746 20.112 17.4517 20.376 17.4287L20.3779 17.4277C20.3821 17.4273 20.3865 17.4268 20.3906 17.4268ZM12 2C17.5119 2 22.0008 6.48779 22 11.998C22 13.6299 21.6061 15.1719 20.9092 16.5342C20.8578 16.5431 20.8059 16.5508 20.7549 16.5605C20.2952 16.648 19.8352 16.7334 19.374 16.8135C19.0885 16.8627 18.8006 16.9045 18.5127 16.9424C18.1831 16.9857 17.8528 17.0238 17.5225 17.0605C17.3819 17.0762 17.24 17.0828 17.0986 17.0938C16.9346 17.1059 16.7715 17.1182 16.6074 17.1299C16.5602 17.1334 16.5121 17.134 16.4648 17.1348C16.183 17.1395 15.9016 17.1457 15.6201 17.1484C15.4662 17.15 15.3123 17.1463 15.1592 17.1436C15.1147 17.1428 15.0698 17.1363 15.0117 17.1309C15.0374 17.1176 15.0521 17.1072 15.0684 17.1006C15.4223 16.9467 15.7707 16.7814 16.1133 16.6045C16.9191 16.1882 17.6811 15.7051 18.376 15.1201C18.6352 14.9023 18.8806 14.669 19.1133 14.4238C19.4358 14.0854 19.7271 13.7214 19.9863 13.333C20.1516 13.085 20.3019 12.8275 20.4395 12.5635C20.6905 12.0829 20.8872 11.5808 21.043 11.0615C21.0511 11.0347 21.0541 11.005 21.0596 10.9766C21.067 10.9395 21.0674 10.8982 21.083 10.8643C21.1154 10.7952 21.1108 10.7251 21.1143 10.6533C21.117 10.5916 21.1332 10.5306 21.1426 10.4697V8.5332C21.1328 8.48335 21.1222 8.43423 21.1133 8.38477C21.1098 8.36485 21.1129 8.34179 21.1055 8.32422C21.0142 8.1018 20.9306 7.87574 20.8271 7.65918C20.6631 7.31586 20.4457 7.00719 20.1836 6.72949C19.881 6.40857 19.5301 6.15285 19.1416 5.94629C18.7576 5.74241 18.3506 5.59725 17.9307 5.49023C17.6491 5.41842 17.363 5.36971 17.0732 5.34863C16.9968 5.34318 16.9204 5.33847 16.8447 5.33301C16.8365 5.33262 16.8285 5.32676 16.8203 5.32324H16.3867C16.3767 5.32638 16.3665 5.33224 16.3564 5.33301C16.1886 5.34706 16.0196 5.35685 15.8525 5.37598C15.521 5.41387 15.196 5.48559 14.875 5.57617C14.2466 5.75345 13.6475 6.00521 13.0645 6.29883C12.6231 6.52104 12.1994 6.7745 11.7939 7.05762C11.3529 7.36539 10.9399 7.70747 10.5566 8.08398C10.4411 8.19755 10.3296 8.31633 10.2188 8.43457C9.94383 8.72783 9.69585 9.04369 9.47363 9.37793C9.29019 9.65388 9.12765 9.94226 8.98828 10.2432C8.83126 10.581 8.70723 10.9309 8.6123 11.291C8.49043 11.7523 8.4334 12.2229 8.41309 12.6982C8.40684 12.8443 8.4002 12.9907 8.39941 13.1367C8.39902 13.2213 8.34881 13.2598 8.27441 13.2588C7.99081 13.2529 7.70548 13.2498 7.42188 13.249C7.13364 13.2482 6.84546 13.2428 6.55762 13.2217C6.36439 13.2072 6.17154 13.1961 5.97949 13.1758C5.65917 13.1418 5.34122 13.0877 5.02832 13.0127C4.85735 12.9721 4.69052 12.9167 4.53906 12.8242C4.47424 12.7844 4.40876 12.7455 4.33691 12.7021C4.32211 12.7353 4.30508 12.7647 4.29492 12.7959C4.2559 12.9176 4.2452 13.0418 4.2627 13.1689C4.2877 13.349 4.34726 13.5153 4.46094 13.6582C4.52332 13.7369 4.59677 13.8064 4.69531 13.835C4.9004 13.8943 5.10702 13.9533 5.31445 14.0049C5.74319 14.0818 5.86998 14.0871 6.23828 14.1113C6.44094 14.1195 6.64441 14.1242 6.84668 14.125C7.34095 14.1269 7.83483 14.126 8.3291 14.126C8.45832 14.126 8.52482 14.1353 8.5791 14.3037C8.79508 14.9738 9.17751 15.5374 9.70703 15.999C10.1668 16.3997 10.6895 16.6994 11.2578 16.9189C11.527 17.0232 11.8031 17.11 12.0762 17.2021C12.2827 17.2716 12.4915 17.3377 12.6992 17.4053C12.7392 17.4181 12.7738 17.4349 12.7812 17.4854C12.7704 17.4893 12.7601 17.4953 12.75 17.498C12.3683 17.5847 11.9899 17.6864 11.6035 17.75C11.3527 17.7914 11.1006 17.8301 10.8486 17.8652C10.6844 17.8882 10.5186 17.9051 10.3535 17.9219C10.1769 17.9402 9.99981 17.9566 9.82324 17.9707C9.70892 17.9797 9.59382 17.9838 9.47949 17.9893C9.29946 17.9971 9.11948 18.008 8.93945 18.0107C8.62383 18.0158 8.30801 18.0088 7.99316 17.9893C7.87174 17.9818 7.74994 17.9787 7.62891 17.9697C7.40474 17.9537 7.18041 17.9379 6.95703 17.9141C6.72 17.8887 6.48352 17.8594 6.24805 17.8242C5.9871 17.7856 5.72735 17.7424 5.46875 17.6943C5.09895 17.626 4.73269 17.5404 4.36914 17.4443C4.0586 17.3619 3.75038 17.2707 3.44531 17.1699C2.52853 15.66 2.00005 13.8897 2 11.999C2 6.48809 6.48825 2.00017 12 2ZM17.2422 5.75293C17.6844 5.76699 18.1211 5.82619 18.5449 5.95898C18.8927 6.06789 19.2201 6.22096 19.5234 6.42383C19.6917 6.53705 19.8497 6.66512 19.998 6.80371C20.2129 7.00564 20.4057 7.22523 20.5615 7.47559C20.7454 7.77119 20.8664 8.0929 20.9375 8.43262C20.9863 8.66422 21.0141 8.89945 21.0215 9.13574C21.0277 9.33593 21.0342 9.53614 21.0342 9.73633C21.0342 9.98903 21.0088 10.2403 20.9736 10.4902C20.9279 10.8115 20.8577 11.1276 20.7617 11.4375C20.641 11.8233 20.4873 12.1954 20.2979 12.5527C20.1252 12.8777 19.9275 13.1872 19.708 13.4824C19.551 13.6937 19.383 13.8967 19.2021 14.0889C19.119 14.1774 19.0324 14.264 18.9473 14.3506C18.6945 14.6056 18.4221 14.8389 18.1377 15.0576C17.6496 15.4336 17.1283 15.7595 16.5859 16.0527C15.9656 16.3878 15.3207 16.6664 14.6543 16.8945C14.4942 16.9488 14.3345 17.0039 14.1729 17.0527C14.0045 17.1035 13.8299 17.1117 13.6572 17.0879C13.3542 17.0465 13.0516 17.0019 12.751 16.9473C12.2783 16.8613 11.8158 16.7343 11.3662 16.5625C10.9398 16.3989 10.5317 16.1983 10.1514 15.9453C9.90489 15.7809 9.67539 15.5957 9.4707 15.3809C9.17075 15.0653 8.93829 14.7067 8.78516 14.2979C8.76602 14.2482 8.75469 14.1957 8.73828 14.1387C8.84521 14.1219 8.94247 14.1057 9.04004 14.0908C9.38185 14.0381 9.72479 13.9855 10.0674 13.9336C10.4274 13.8785 10.7864 13.814 11.1406 13.7266C11.4117 13.6594 11.6815 13.5853 11.9482 13.5049C12.3219 13.3916 12.6826 13.2438 13.0312 13.0693C13.2871 12.9408 13.5389 12.8037 13.7705 12.6338C14.014 12.4542 14.1987 12.2237 14.3408 11.958C14.4403 11.7707 14.5176 11.5742 14.582 11.3721C14.5863 11.3596 14.5895 11.3472 14.5957 11.3252C14.5416 11.349 14.5023 11.3718 14.4766 11.417C14.2668 11.7857 13.9553 12.0455 13.583 12.2373C13.3495 12.3572 13.1056 12.4493 12.8584 12.5352C12.403 12.6933 11.9385 12.8223 11.4658 12.9199C11.1972 12.9754 10.9266 13.0219 10.6553 13.0625C10.404 13.1003 10.1519 13.1268 9.89941 13.1533C9.74045 13.1697 9.57986 13.1748 9.4209 13.1865C9.21233 13.2021 9.00446 13.2197 8.7959 13.2354C8.72871 13.24 8.66133 13.2422 8.58398 13.2461C8.57853 13.1761 8.57173 13.1091 8.5752 13.043C8.57246 12.9395 8.57051 12.8349 8.5752 12.7314C8.58809 12.4323 8.62091 12.1351 8.68457 11.8418C8.77713 11.4173 8.9112 11.0075 9.09473 10.6143C9.267 10.2456 9.47363 9.89664 9.71387 9.56738C9.9169 9.28869 10.1382 9.02561 10.376 8.77539C10.7342 8.39887 11.1226 8.0568 11.5332 7.73926C11.9402 7.42449 12.3709 7.14409 12.8232 6.89844C13.2458 6.6696 13.6833 6.47164 14.1348 6.30762C14.6226 6.13073 15.1212 5.98944 15.6309 5.89453C15.8672 5.85118 16.1065 5.81952 16.3447 5.78906C16.6428 5.75118 16.943 5.74356 17.2422 5.75293ZM8.13965 15.7197C8.08233 15.7314 8.04063 15.7526 8.01367 15.8047C7.92935 15.9792 7.83999 16.1511 7.75488 16.3252L7.69629 16.4766C7.67615 16.5327 7.69225 16.5827 7.72656 16.6279C7.7445 16.6509 7.76391 16.6741 7.78613 16.6924C7.85917 16.7525 7.9338 16.8111 8.00879 16.8682C8.02439 16.8794 8.0454 16.8861 8.06445 16.8896C8.13425 16.9016 8.19069 16.8763 8.24219 16.8291C8.37134 16.7089 8.43021 16.557 8.44434 16.3857C8.45722 16.2315 8.42339 16.0908 8.32031 15.9697C8.27539 15.917 8.23789 15.8578 8.19727 15.8008C8.17852 15.7738 8.15918 15.7463 8.13965 15.7197ZM15.6182 10.7471C15.5854 10.7385 15.5625 10.7484 15.5498 10.7754C15.4187 11.0564 15.3248 11.3495 15.2549 11.6504C15.1893 11.9336 15.1477 12.2209 15.1309 12.5107H15.1299C15.1209 12.6634 15.1178 12.8167 15.1143 12.9697C15.1127 13.0372 15.1137 13.1048 15.1211 13.1719C15.1395 13.3344 15.1871 13.4899 15.252 13.6387C15.3305 13.8203 15.4635 13.9432 15.6631 13.9717C15.7607 13.9861 15.8622 13.9904 15.959 13.9775C16.2631 13.9381 16.5131 13.7912 16.71 13.5605C17.01 13.2086 17.267 12.8228 17.5283 12.4424C17.5717 12.3791 17.6144 12.2166 17.6133 12.1436C17.6094 12.1428 17.6045 12.1409 17.6006 12.1416C17.5869 12.1443 17.5734 12.1479 17.5605 12.1514C17.3095 12.2177 17.0586 12.2785 16.7959 12.2656C16.6978 12.2605 16.6022 12.2482 16.499 12.2158C16.5182 12.201 16.5281 12.1912 16.5391 12.1846C16.7691 12.0378 17.0103 11.9101 17.2656 11.8125C17.4252 11.7518 17.583 11.7595 17.7324 11.8496C17.7555 11.8629 17.7807 11.8791 17.8057 11.8818C17.9309 11.8955 18.0457 11.8699 18.1289 11.7686C18.2019 11.6796 18.2704 11.5872 18.3359 11.4932C18.4199 11.3729 18.4875 11.2424 18.5117 11.0947C18.5124 11.0885 18.51 11.0816 18.5088 11.0742C18.4959 11.0688 18.4834 11.0648 18.4678 11.0586C18.4531 11.0763 18.4385 11.093 18.4258 11.1104C18.3914 11.1544 18.3574 11.2 18.3223 11.2441C18.25 11.3351 18.1627 11.4022 18.042 11.417C18.007 11.4209 17.9749 11.4235 17.9492 11.3945C17.8668 11.2996 17.7619 11.2965 17.6514 11.3281C17.1323 11.4797 16.6802 11.7446 16.3076 12.1387C16.2264 12.2254 16.1729 12.3309 16.1377 12.4434C16.0999 12.5616 16.1452 12.634 16.2705 12.6562C16.3368 12.6679 16.4055 12.6691 16.4727 12.6699C16.6553 12.6715 16.8379 12.6709 17.0205 12.6709C17.0396 12.6709 17.0584 12.6729 17.084 12.6748C17.0755 12.693 17.071 12.7049 17.0645 12.7158C17.0177 12.793 16.9508 12.8497 16.876 12.8965C16.6885 13.014 16.4799 13.0816 16.2646 13.125C16.1748 13.1433 16.0816 13.1432 15.9902 13.124C15.79 13.0826 15.6464 12.9669 15.5488 12.7881C15.4688 12.6413 15.4525 12.48 15.4443 12.3184C15.435 12.1309 15.4506 11.9435 15.4736 11.7588C15.5107 11.4596 15.5582 11.1622 15.6016 10.8643C15.6078 10.8248 15.6127 10.7857 15.6182 10.7471ZM19.3418 10.7158C19.2203 10.8869 19.1152 11.068 19.0332 11.2617C18.9621 11.4293 18.9254 11.6049 18.9023 11.7842C18.8652 12.0699 18.8236 12.3547 18.7842 12.6396C18.7588 12.8241 18.7332 13.0089 18.709 13.1934C18.6832 13.3851 18.6588 13.5768 18.6338 13.7686C18.633 13.7752 18.6338 13.7819 18.6338 13.79C18.6494 13.7955 18.6633 13.8012 18.6836 13.8086C18.7609 13.6446 18.8371 13.4887 18.9062 13.3301C18.9398 13.2544 18.968 13.174 18.9863 13.0938C19.0691 12.7295 19.1242 12.3601 19.1797 11.9912C19.2121 11.7733 19.248 11.5558 19.2812 11.3379C19.3144 11.1213 19.3465 10.9037 19.3809 10.6738C19.362 10.6946 19.3507 10.7038 19.3418 10.7158ZM19.1709 8.7168C19.0966 8.70398 19.0872 8.70832 19.0557 8.77637L18.7822 9.36426C18.7472 9.43722 18.7645 9.4891 18.8164 9.53906C18.8776 9.59873 18.9382 9.65869 19.001 9.7168C19.0654 9.77616 19.1318 9.8336 19.2002 9.89453C19.26 9.81681 19.318 9.74179 19.375 9.66602C19.4533 9.56076 19.5201 9.4491 19.5498 9.31934C19.574 9.21271 19.5686 9.10858 19.5166 9.00977C19.4557 8.8943 19.3616 8.81244 19.2539 8.74414C19.2301 8.7293 19.1994 8.72148 19.1709 8.7168ZM17.3398 8.72754C17.2906 8.67405 17.2332 8.67483 17.1777 8.72168C17.1641 8.7334 17.1506 8.74668 17.1396 8.76074C17.0597 8.86453 16.9847 8.97162 16.9277 9.08984C16.838 9.27764 16.8635 9.44753 16.9971 9.60449C17.0732 9.69464 17.1649 9.76783 17.2578 9.83887C17.2749 9.85161 17.296 9.85925 17.3174 9.87012C17.4271 9.72248 17.5328 9.58045 17.6406 9.43555C17.7022 9.49361 17.7581 9.54915 17.8154 9.60254C17.8834 9.66542 17.9514 9.72813 18.0225 9.78711C18.0888 9.84206 18.1507 9.84143 18.2178 9.78809C18.427 9.62063 18.5121 9.40348 18.458 9.1416C18.4193 8.95689 18.3117 8.81444 18.1504 8.71484C18.0766 8.66954 18.0188 8.68458 17.9707 8.75488C17.9618 8.76773 17.9537 8.78091 17.9463 8.79492C17.9131 8.85859 17.8799 8.92364 17.8467 8.9873C17.812 9.05279 17.7771 9.11872 17.7373 9.19434C17.6768 9.121 17.6255 9.055 17.5713 8.99219C17.4955 8.90275 17.4199 8.81347 17.3398 8.72754ZM16.1289 8.7041C16.0801 8.67094 16.0437 8.6799 16.002 8.72168C15.977 8.74663 15.9539 8.77508 15.9375 8.80664C15.8562 8.96717 15.7766 9.12932 15.6973 9.29102V9.29199C15.6455 9.39653 15.6665 9.48974 15.7539 9.56543C15.8709 9.66683 15.9904 9.76559 16.1094 9.86621C16.2374 9.76589 16.3391 9.6491 16.4141 9.51172C16.4754 9.39845 16.5041 9.27752 16.4717 9.14746C16.442 9.02835 16.3787 8.92772 16.2939 8.8418C16.2439 8.79102 16.1879 8.74394 16.1289 8.7041Z" fill="white"/>
</svg>
