<svg width="24" height="24" viewBox="0 0 24 24" fill="none" xmlns="http://www.w3.org/2000/svg">
<path fill-rule="evenodd" clip-rule="evenodd" d="M18.4823 19.7902L18.483 19.7885L18.5004 19.745L21.4992 4.62592V4.57682C21.4992 4.20012 21.36 3.87126 21.0571 3.674C20.792 3.50133 20.4873 3.48904 20.2736 3.50526C20.0476 3.52241 19.8344 3.57883 19.6869 3.62579C19.611 3.64995 19.5475 3.67323 19.502 3.69083C19.4792 3.69967 19.4608 3.70717 19.4473 3.71276L19.4341 3.71831L2.71429 10.2772L2.70968 10.2789C2.70065 10.2822 2.68871 10.2866 2.67429 10.2923C2.64553 10.3034 2.60639 10.3195 2.56041 10.3403C2.47013 10.3812 2.3454 10.4444 2.21889 10.531C2.00404 10.6781 1.59493 11.0264 1.66401 11.5787C1.72123 12.0361 2.03653 12.3266 2.2491 12.477C2.36305 12.5576 2.47206 12.6157 2.55189 12.6538C2.59234 12.673 2.6267 12.6878 2.65228 12.6982C2.66511 12.7034 2.67584 12.7076 2.68414 12.7107L2.69476 12.7147L2.70156 12.7172L5.6268 13.702C5.61692 13.8856 5.63513 14.0727 5.6838 14.2573L7.14908 19.8157C7.32282 20.4748 7.91905 20.9339 8.60062 20.9334C9.21155 20.9329 9.75337 20.5633 9.98356 20.0119L12.2712 17.5658L16.2002 20.5781L16.2561 20.6025C16.6131 20.7582 16.9466 20.8076 17.2515 20.7659C17.556 20.7243 17.798 20.5966 17.9797 20.4512C18.1586 20.3081 18.2812 20.1466 18.3582 20.025C18.3974 19.9633 18.4266 19.909 18.4469 19.8681C18.457 19.8476 18.465 19.8302 18.4711 19.8167L18.4786 19.7993L18.4813 19.7928L18.4823 19.7902ZM7.1342 13.875C7.1009 13.7486 7.15318 13.6153 7.26346 13.5452L17.1855 7.24432C17.1855 7.24432 17.7691 6.89002 17.7482 7.24432C17.7482 7.24432 17.8524 7.30689 17.5396 7.59861C17.243 7.87569 10.468 14.4167 9.78242 15.0786C9.74285 15.1168 9.71923 15.1607 9.70529 15.2139L8.59948 19.4334L7.1342 13.875Z" fill="white"/>
</svg>
