<svg width="18" height="18" viewBox="0 0 18 18" fill="none" xmlns="http://www.w3.org/2000/svg">
<g clip-path="url(#clip0_3271_6433)">
<path d="M9.12978 0C4.4629 0 0.679688 4.02939 0.679688 8.99995C0.679688 13.9705 4.4629 17.9999 9.12978 17.9999C13.7967 17.9999 17.5799 13.9705 17.5799 8.99995C17.5799 4.02939 13.7967 0 9.12978 0Z" fill="#F0A931"/>
<path d="M9.12978 0C4.4629 0 0.679688 4.02939 0.679688 8.99995C0.679688 13.9705 4.4629 17.9999 9.12978 17.9999C13.7967 17.9999 17.5799 13.9705 17.5799 8.99995C17.5799 4.02939 13.7967 0 9.12978 0ZM9.12855 1.67699C9.12855 1.67699 9.1294 1.67699 9.12978 1.67699C9.12978 1.67699 9.12893 1.67699 9.12855 1.67699Z" fill="#F7CB40"/>
<path d="M16.0067 8.81165C15.9947 8.30919 15.9352 7.81928 15.8329 7.34688C15.82 7.28778 15.8066 7.22908 15.7925 7.17059C15.7334 6.92609 15.6625 6.68675 15.581 6.45277C15.487 6.18297 15.3787 5.92056 15.2567 5.66685C15.2314 5.61423 15.2055 5.56201 15.1791 5.51009C14.8951 4.95339 14.5451 4.4405 14.1406 3.98288C13.7872 3.58293 13.3922 3.22529 12.9628 2.91794C12.7844 2.79033 12.6003 2.67122 12.4106 2.56152C12.3619 2.53338 12.3128 2.50576 12.2634 2.47884C11.3246 1.96666 10.2607 1.67773 9.13337 1.67773C9.13299 1.67773 9.13252 1.67773 9.13214 1.67773C9.09518 1.67773 9.0584 1.67865 9.02163 1.67925C8.97498 1.68006 8.92842 1.68138 8.88205 1.6831C8.87464 1.6834 8.86723 1.68371 8.85982 1.68401C8.81886 1.68573 8.77801 1.68765 8.73725 1.69008C8.71786 1.6913 8.69857 1.69261 8.67928 1.69403C8.64859 1.69615 8.61781 1.69818 8.58712 1.70071C8.53476 1.70506 8.48241 1.70992 8.43034 1.71548C8.19916 1.74048 7.9714 1.77772 7.74764 1.8265C7.52387 1.87528 7.304 1.93559 7.08869 2.00694C6.98104 2.04256 6.87452 2.08102 6.76924 2.12211C6.50595 2.22482 6.25026 2.34414 6.00321 2.47884C5.9538 2.50576 5.90477 2.53338 5.85603 2.56152C5.75864 2.61789 5.66257 2.67668 5.56813 2.73781C5.44574 2.81705 5.32612 2.90064 5.20887 2.98757C5.14511 3.03493 5.08183 3.0829 5.01959 3.13249C4.22543 3.76509 3.56392 4.57621 3.0876 5.51009C3.06119 5.56201 3.03525 5.61423 3.00997 5.66685C2.9237 5.84628 2.84464 6.03016 2.77224 6.21778C2.74649 6.28448 2.72169 6.35157 2.69774 6.41917C2.61118 6.66377 2.53621 6.91435 2.47426 7.17048C2.4601 7.22898 2.44671 7.28778 2.43388 7.34678C2.33145 7.81918 2.27197 8.30909 2.26009 8.81155C2.25857 8.8744 2.25781 8.93734 2.25781 9.00059C2.25781 9.05372 2.25848 9.10675 2.25971 9.15958C2.26085 9.20987 2.26237 9.25997 2.26437 9.31006C2.26456 9.30632 2.26475 9.30267 2.26494 9.29903C2.29078 9.98547 2.40433 10.6478 2.59579 11.273C2.65194 11.4566 2.71466 11.637 2.78383 11.8138C3.25455 13.0175 4.01811 14.0587 4.97997 14.8364C5.09884 14.9325 5.22065 15.0244 5.34531 15.1124C5.64994 15.3269 5.97119 15.5168 6.30717 15.6784C6.44656 15.7454 6.58852 15.8073 6.73266 15.8645C7.43208 16.1421 8.18519 16.3021 8.97099 16.3215C9.02496 16.3228 9.07902 16.3238 9.13337 16.3238C9.26583 16.3238 9.39733 16.3193 9.52798 16.3115C13.0458 16.0994 15.8558 13.071 16.0024 9.30956C16.0024 9.30976 16.0024 9.30996 16.0024 9.31016C16.0044 9.26007 16.0059 9.20997 16.007 9.15968C16.0083 9.10685 16.0089 9.05392 16.0089 9.00069C16.0089 8.93754 16.0082 8.8745 16.0067 8.81165Z" fill="#DB8D24"/>
<path d="M12.9628 2.91794C12.7844 2.79033 12.6003 2.67122 12.4106 2.56152C12.3619 2.53338 12.3128 2.50576 12.2634 2.47884C11.3246 1.96666 10.2607 1.67773 9.13337 1.67773C9.13299 1.67773 9.13252 1.67773 9.13214 1.67773C9.09518 1.67773 9.0584 1.67865 9.02163 1.67925C8.97498 1.68006 8.92842 1.68138 8.88205 1.6831C8.87464 1.6834 8.86723 1.68371 8.85982 1.68401C8.81887 1.68573 8.77801 1.68765 8.73725 1.69008C8.71786 1.6913 8.69857 1.69261 8.67929 1.69403C8.64859 1.69615 8.61781 1.69818 8.58712 1.70071C8.53476 1.70506 8.48241 1.70992 8.43034 1.71548C8.19916 1.74048 7.9714 1.77772 7.74764 1.8265C7.52387 1.87528 7.304 1.93559 7.08869 2.00694C6.98104 2.04256 6.87452 2.08102 6.76924 2.12211C6.50595 2.22482 6.25026 2.34414 6.00321 2.47884C5.9538 2.50576 5.90477 2.53338 5.85603 2.56152C5.75864 2.61789 5.66257 2.67668 5.56813 2.73781C5.44574 2.81705 5.32612 2.90064 5.20887 2.98757C5.14511 3.03493 5.08183 3.0829 5.01959 3.13249C4.22543 3.76509 3.56392 4.57621 3.0876 5.51009C3.06119 5.56201 3.03525 5.61423 3.00997 5.66685C2.9237 5.84628 2.84464 6.03016 2.77224 6.21778C2.74649 6.28448 2.72169 6.35157 2.69774 6.41917C2.61118 6.66377 2.53621 6.91435 2.47426 7.17048C2.4601 7.22898 2.44671 7.28778 2.43388 7.34678C2.33145 7.81918 2.27197 8.30909 2.26009 8.81155C2.25857 8.87439 2.25781 8.93734 2.25781 9.00059C2.25781 9.05372 2.25848 9.10675 2.25971 9.15958C2.26085 9.20987 2.26237 9.25997 2.26437 9.31006C2.26456 9.30632 2.26475 9.30267 2.26494 9.29903C2.42248 5.40332 5.437 2.29647 9.13337 2.29647C9.14164 2.29647 9.14981 2.29678 9.15817 2.29678C10.606 2.30224 11.9482 2.78426 13.0539 3.60337C13.4792 3.91841 13.8694 4.28314 14.2173 4.68996C14.8344 5.41172 15.3181 6.26525 15.6264 7.20651C15.8434 7.86927 15.9737 8.57535 16.0024 9.30945C16.0024 9.30966 16.0024 9.30986 16.0024 9.31006C16.0044 9.25997 16.0059 9.20987 16.007 9.15958C16.0083 9.10675 16.0089 9.05382 16.0089 9.00059C16.0089 8.93744 16.0082 8.87439 16.0067 8.81155C15.9947 8.30909 15.9352 7.81918 15.8329 7.34678C15.82 7.28767 15.8066 7.22898 15.7925 7.17048C15.7334 6.92598 15.6625 6.68665 15.581 6.45267C15.487 6.18287 15.3787 5.92046 15.2567 5.66675C15.2314 5.61412 15.2055 5.5619 15.1791 5.50999C14.8951 4.95329 14.5451 4.4404 14.1406 3.98277C13.7872 3.58283 13.3922 3.22519 12.9628 2.91784V2.91794Z" fill="#B26916"/>
<path d="M13.7168 1.78906C14.1441 2.09793 14.5426 2.44859 14.9069 2.83578L14.1388 3.98258C13.7854 3.58264 13.3904 3.22499 12.9609 2.91765L13.7168 1.78906Z" fill="#F0A931"/>
<path d="M1.69056 12.618C1.21727 11.516 0.953125 10.2907 0.953125 8.99961C0.95322 4.18996 4.61396 0.291016 9.12976 0.291016C9.39638 0.291016 9.65986 0.305082 9.91992 0.331597L9.01802 1.67817C8.97136 1.67898 8.92481 1.68029 8.87844 1.68201C8.87103 1.68232 8.86362 1.68262 8.8562 1.68293C8.81525 1.68465 8.77439 1.68657 8.73363 1.689C8.71425 1.69021 8.69496 1.69153 8.67567 1.69294C8.64498 1.69507 8.61419 1.69709 8.5835 1.69962C8.53115 1.70397 8.4788 1.70883 8.42673 1.7144C8.19555 1.73939 7.96779 1.77664 7.74402 1.82542C7.52026 1.87419 7.30039 1.93451 7.08508 2.00586C6.97742 2.04148 6.87091 2.07993 6.76563 2.12102C6.50234 2.22374 6.24664 2.34305 5.9996 2.47775C5.95019 2.50467 5.90116 2.5323 5.85242 2.56043C5.75502 2.6168 5.65896 2.6756 5.56451 2.73672C5.44213 2.81596 5.3225 2.89956 5.20525 2.98649C5.1415 3.03385 5.07821 3.08182 5.01598 3.13141C4.22182 3.76401 3.56031 4.57513 3.08399 5.50901C3.05757 5.56092 3.03163 5.61314 3.00636 5.66577C2.92008 5.84519 2.84103 6.02908 2.76862 6.2167C2.74287 6.28339 2.71807 6.35049 2.69413 6.41809C2.60757 6.66269 2.5326 6.91326 2.47065 7.1694C2.45649 7.22789 2.44309 7.28669 2.43027 7.34569C2.32784 7.8181 2.26836 8.30801 2.25648 8.81047C2.25496 8.87331 2.2542 8.93626 2.2542 8.99951C2.2542 9.05264 2.25486 9.10567 2.2561 9.15849C2.25724 9.20879 2.25876 9.25888 2.26076 9.30898C2.26095 9.30523 2.26114 9.30159 2.26133 9.29795C2.28717 9.98439 2.40072 10.6467 2.59218 11.272L1.69056 12.618Z" fill="#F0A931"/>
<path d="M5.53427 16.8241C5.06925 16.5813 4.62894 16.2932 4.21875 15.9646L4.9748 14.8359C5.09367 14.932 5.21548 15.024 5.34015 15.1119C5.64477 15.3265 5.96603 15.5163 6.30201 15.6779L5.53427 16.8242V16.8241Z" fill="#F0A931"/>
<path d="M9.13065 17.7093C8.77671 17.7093 8.428 17.6854 8.08594 17.6389L8.96836 16.3215C9.02233 16.3228 9.0764 16.3237 9.13075 16.3237C9.2632 16.3237 9.39471 16.3193 9.52536 16.3115C13.0432 16.0993 15.8531 13.0709 15.9998 9.30951C15.9998 9.30972 15.9998 9.30992 15.9998 9.31012C16.0017 9.26003 16.0033 9.20993 16.0044 9.15964C16.0056 9.10681 16.0063 9.05388 16.0063 9.00065C16.0063 8.9375 16.0055 8.87445 16.004 8.81161C15.9921 8.30915 15.9326 7.81924 15.8302 7.34683C15.8174 7.28773 15.804 7.22904 15.7899 7.17054C15.7308 6.92604 15.6599 6.6867 15.5784 6.45273L16.4598 5.13672C17.002 6.30113 17.3074 7.61279 17.3074 9.00065C17.3074 13.8103 13.6466 17.7093 9.13075 17.7093H9.13065Z" fill="#F0A931"/>
<path d="M11.7251 5.40761C11.7274 5.34143 11.7248 5.27423 11.7165 5.20703C11.7057 5.29325 11.6857 5.37654 11.6562 5.45406C11.6783 5.43746 11.7015 5.42218 11.7251 5.40761Z" fill="#B26916"/>
<path d="M5.6631 9.1485H13.5178C13.5178 6.43694 11.4668 4.23047 8.94639 4.23047C6.42595 4.23047 4.375 6.43625 4.375 9.1485H5.6631ZM8.94639 5.61624C10.3016 5.61624 11.4668 6.50374 11.968 7.76682H5.92477C6.42595 6.50374 7.59113 5.61624 8.94639 5.61624Z" fill="#B26916"/>
<path d="M5.93654 8.85163H13.7912C13.7912 6.14006 11.7403 3.93359 9.21983 3.93359C6.69938 3.93359 4.64844 6.13938 4.64844 8.85163H5.93654ZM9.21983 5.31937C10.5751 5.31937 11.7403 6.20686 12.2414 7.46994H6.19821C6.69939 6.20686 7.86457 5.31937 9.21983 5.31937Z" fill="#F7CB40"/>
<path d="M12.2736 10.4429C11.8727 11.8809 10.6075 12.938 9.10221 12.938C7.59688 12.938 6.26184 11.8252 5.89837 10.3281L4.88296 11.1623L4.83594 11.2061C5.5006 12.9918 7.16034 14.2626 9.10221 14.2626C11.0441 14.2626 12.6441 13.0382 13.3323 11.3043L12.273 10.4429H12.2736Z" fill="#B26916"/>
<path d="M12.3674 10.0484C11.9664 11.4864 10.7013 12.5435 9.19596 12.5435C7.69063 12.5435 6.35559 11.4307 5.99212 9.93359L4.97671 10.7677L4.92969 10.8115C5.59435 12.5972 7.25409 13.868 9.19596 13.868C11.1378 13.868 12.7378 12.6437 13.426 10.9097L12.3667 10.0484H12.3674Z" fill="#F0A931"/>
</g>
<defs>
<clipPath id="clip0_3271_6433">
<rect width="16.9003" height="18" fill="white" transform="translate(0.679688)"/>
</clipPath>
</defs>
</svg>
