<svg width="62" height="63" viewBox="0 0 62 63" fill="none" xmlns="http://www.w3.org/2000/svg">
<path d="M53.4094 0H8.26166C3.70049 0 0.00292969 3.72733 0.00292969 8.32522V53.8364C0.00292969 58.4343 3.70049 62.1616 8.26166 62.1616H53.4094C57.9705 62.1616 61.6681 58.4343 61.6681 53.8364V8.32522C61.6681 3.72733 57.9705 0 53.4094 0Z" fill="url(#paint0_linear_5811_35678)"/>
<mask id="mask0_5811_35678" style="mask-type:luminance" maskUnits="userSpaceOnUse" x="0" y="0" width="62" height="63">
<path d="M53.4064 0H8.25873C3.69756 0 0 3.72733 0 8.32522V53.8364C0 58.4343 3.69756 62.1616 8.25873 62.1616H53.4064C57.9676 62.1616 61.6652 58.4343 61.6652 53.8364V8.32522C61.6652 3.72733 57.9676 0 53.4064 0Z" fill="white"/>
</mask>
<g mask="url(#mask0_5811_35678)">
<path d="M0.612522 0H0V62.1616H0.612522V0Z" fill="url(#paint1_linear_5811_35678)"/>
<path d="M1.22385 0H0.611328V62.1616H1.22385V0Z" fill="url(#paint2_linear_5811_35678)"/>
<path d="M1.82053 0H1.20801V62.1616H1.82053V0Z" fill="url(#paint3_linear_5811_35678)"/>
<path d="M2.44651 0H1.83398V62.1616H2.44651V0Z" fill="url(#paint4_linear_5811_35678)"/>
<path d="M3.05783 0H2.44531V62.1616H3.05783V0Z" fill="url(#paint5_linear_5811_35678)"/>
<path d="M3.65451 0H3.04199V62.1616H3.65451V0Z" fill="url(#paint6_linear_5811_35678)"/>
<path d="M4.26584 0H3.65332V62.1616H4.26584V0Z" fill="url(#paint7_linear_5811_35678)"/>
<path d="M4.87717 0H4.26465V62.1616H4.87717V0Z" fill="url(#paint8_linear_5811_35678)"/>
<path d="M5.51682 0H4.9043V62.1616H5.51682V0Z" fill="url(#paint9_linear_5811_35678)"/>
<path d="M6.09983 0H5.4873V62.1616H6.09983V0Z" fill="url(#paint10_linear_5811_35678)"/>
<path d="M6.7258 0H6.11328V62.1616H6.7258V0Z" fill="url(#paint11_linear_5811_35678)"/>
<path d="M7.30783 0H6.69531V62.1616H7.30783V0Z" fill="url(#paint12_linear_5811_35678)"/>
<path d="M7.94748 0H7.33496V62.1616H7.94748V0Z" fill="url(#paint13_linear_5811_35678)"/>
<path d="M8.55881 0H7.94629V62.1616H8.55881V0Z" fill="url(#paint14_linear_5811_35678)"/>
<path d="M9.14182 0H8.5293V62.1616H9.14182V0Z" fill="url(#paint15_linear_5811_35678)"/>
<path d="M9.7678 0H9.15527V62.1616H9.7678V0Z" fill="url(#paint16_linear_5811_35678)"/>
<path d="M10.3645 0H9.75195V62.1616H10.3645V0Z" fill="url(#paint17_linear_5811_35678)"/>
<path d="M10.9905 0H10.3779V62.1616H10.9905V0Z" fill="url(#paint18_linear_5811_35678)"/>
<path d="M11.6018 0H10.9893V62.1616H11.6018V0Z" fill="url(#paint19_linear_5811_35678)"/>
<path d="M12.2131 0H11.6006V62.1616H12.2131V0Z" fill="url(#paint20_linear_5811_35678)"/>
<path d="M12.8098 0H12.1973V62.1616H12.8098V0Z" fill="url(#paint21_linear_5811_35678)"/>
<path d="M13.4348 0H12.8223V62.1616H13.4348V0Z" fill="url(#paint22_linear_5811_35678)"/>
<path d="M14.0608 0H13.4482V62.1616H14.0608V0Z" fill="url(#paint23_linear_5811_35678)"/>
<path d="M14.6438 0H14.0312V62.1616H14.6438V0Z" fill="url(#paint24_linear_5811_35678)"/>
<path d="M15.2551 0H14.6426V62.1616H15.2551V0Z" fill="url(#paint25_linear_5811_35678)"/>
<path d="M15.8801 0H15.2676V62.1616H15.8801V0Z" fill="url(#paint26_linear_5811_35678)"/>
<path d="M16.4778 0H15.8652V62.1616H16.4778V0Z" fill="url(#paint27_linear_5811_35678)"/>
<path d="M17.1028 0H16.4902V62.1616H17.1028V0Z" fill="url(#paint28_linear_5811_35678)"/>
<path d="M17.7004 0H17.0879V62.1616H17.7004V0Z" fill="url(#paint29_linear_5811_35678)"/>
<path d="M18.3254 0H17.7129V62.1616H18.3254V0Z" fill="url(#paint30_linear_5811_35678)"/>
<path d="M18.9367 0H18.3242V62.1616H18.9367V0Z" fill="url(#paint31_linear_5811_35678)"/>
<path d="M19.5481 0H18.9355V62.1616H19.5481V0Z" fill="url(#paint32_linear_5811_35678)"/>
<path d="M20.1594 0H19.5469V62.1616H20.1594V0Z" fill="url(#paint33_linear_5811_35678)"/>
<path d="M20.7707 0H20.1582V62.1616H20.7707V0Z" fill="url(#paint34_linear_5811_35678)"/>
<path d="M21.3674 0H20.7549V62.1616H21.3674V0Z" fill="url(#paint35_linear_5811_35678)"/>
<path d="M21.9787 0V62.1616H21.3662V7.93671V0H21.9787Z" fill="url(#paint36_linear_5811_35678)"/>
<path d="M22.5901 0H21.9775V62.1616H22.5901V0Z" fill="url(#paint37_linear_5811_35678)"/>
<path d="M23.2297 0H22.6172V62.1616H23.2297V0Z" fill="url(#paint38_linear_5811_35678)"/>
<path d="M23.8127 0H23.2002V62.1616H23.8127V0Z" fill="url(#paint39_linear_5811_35678)"/>
<path d="M24.424 0H23.8115V62.1616H24.424V0Z" fill="url(#paint40_linear_5811_35678)"/>
<path d="M25.0354 0H24.4229V62.1616H25.0354V0Z" fill="url(#paint41_linear_5811_35678)"/>
<path d="M25.6321 0H25.0195V62.1616H25.6321V0Z" fill="url(#paint42_linear_5811_35678)"/>
<path d="M26.2727 0H25.6602V62.1616H26.2727V0Z" fill="url(#paint43_linear_5811_35678)"/>
<path d="M26.8547 0H26.2422V62.1616H26.8547V0Z" fill="url(#paint44_linear_5811_35678)"/>
<path d="M27.4807 0H26.8682V62.1616H27.4807V0Z" fill="url(#paint45_linear_5811_35678)"/>
<path d="M28.0774 0H27.4648V62.1616H28.0774V0Z" fill="url(#paint46_linear_5811_35678)"/>
<path d="M28.7033 0H28.0908V62.1616H28.7033V0Z" fill="url(#paint47_linear_5811_35678)"/>
<path d="M29.3147 0H28.7021V62.1616H29.3147V0Z" fill="url(#paint48_linear_5811_35678)"/>
<path d="M29.9113 0H29.2988V62.1616H29.9113V0Z" fill="url(#paint49_linear_5811_35678)"/>
<path d="M30.5373 0H29.9248V62.1616H30.5373V0Z" fill="url(#paint50_linear_5811_35678)"/>
<path d="M31.1487 0H30.5361V62.1616H31.1487V0Z" fill="url(#paint51_linear_5811_35678)"/>
<path d="M31.7453 0H31.1328V62.1616H31.7453V0Z" fill="url(#paint52_linear_5811_35678)"/>
<path d="M32.3567 0H31.7441V62.1616H32.3567V0Z" fill="url(#paint53_linear_5811_35678)"/>
<path d="M32.9817 0H32.3691V62.1616H32.9817V0Z" fill="url(#paint54_linear_5811_35678)"/>
<path d="M33.5793 0H32.9668V62.1616H33.5793V0Z" fill="url(#paint55_linear_5811_35678)"/>
<path d="M34.1906 0H33.5781V62.1616H34.1906V0Z" fill="url(#paint56_linear_5811_35678)"/>
<path d="M34.7873 0H34.1748V62.1616H34.7873V0Z" fill="url(#paint57_linear_5811_35678)"/>
<path d="M35.4133 0H34.8008V62.1616H35.4133V0Z" fill="url(#paint58_linear_5811_35678)"/>
<path d="M36.0246 0H35.4121V62.1616H36.0246V0Z" fill="url(#paint59_linear_5811_35678)"/>
<path d="M36.6496 0H36.0371V62.1616H36.6496V0Z" fill="url(#paint60_linear_5811_35678)"/>
<path d="M37.2326 0H36.6201V62.1616H37.2326V0Z" fill="url(#paint61_linear_5811_35678)"/>
<path d="M37.8586 0H37.2461V62.1616H37.8586V0Z" fill="url(#paint62_linear_5811_35678)"/>
<path d="M38.469 0H37.8564V62.1616H38.469V0Z" fill="url(#paint63_linear_5811_35678)"/>
<path d="M39.0949 0H38.4824V62.1616H39.0949V0Z" fill="url(#paint64_linear_5811_35678)"/>
<path d="M39.6916 0H39.0791V62.1616H39.6916V0Z" fill="url(#paint65_linear_5811_35678)"/>
<path d="M40.303 0H39.6904V62.1616H40.303V0Z" fill="url(#paint66_linear_5811_35678)"/>
<path d="M40.9006 0H40.2881V62.1616H40.9006V0Z" fill="url(#paint67_linear_5811_35678)"/>
<path d="M41.5119 0H40.8994V62.1616H41.5119V0Z" fill="url(#paint68_linear_5811_35678)"/>
<path d="M42.1369 0H41.5244V62.1616H42.1369V0Z" fill="url(#paint69_linear_5811_35678)"/>
<path d="M42.7346 0H42.1221V62.1616H42.7346V0Z" fill="url(#paint70_linear_5811_35678)"/>
<path d="M43.3459 0H42.7334V62.1616H43.3459V0Z" fill="url(#paint71_linear_5811_35678)"/>
<path d="M43.9563 0H43.3438V62.1616H43.9563V0Z" fill="url(#paint72_linear_5811_35678)"/>
<path d="M44.5822 0H43.9697V62.1616H44.5822V0Z" fill="url(#paint73_linear_5811_35678)"/>
<path d="M45.1789 0H44.5664V62.1616H45.1789V0Z" fill="url(#paint74_linear_5811_35678)"/>
<path d="M45.7903 0H45.1777V62.1616H45.7903V0Z" fill="url(#paint75_linear_5811_35678)"/>
<path d="M46.3879 0H45.7754V62.1616H46.3879V0Z" fill="url(#paint76_linear_5811_35678)"/>
<path d="M47.0129 0H46.4004V62.1616H47.0129V0Z" fill="url(#paint77_linear_5811_35678)"/>
<path d="M47.6242 0H47.0117V62.1616H47.6242V0Z" fill="url(#paint78_linear_5811_35678)"/>
<path d="M48.2502 0H47.6377V62.1616H48.2502V0Z" fill="url(#paint79_linear_5811_35678)"/>
<path d="M48.8332 0H48.2207V62.1616H48.8332V0Z" fill="url(#paint80_linear_5811_35678)"/>
<path d="M49.4582 0H48.8457V62.1616H49.4582V0Z" fill="url(#paint81_linear_5811_35678)"/>
<path d="M50.0696 0H49.457V62.1616H50.0696V0Z" fill="url(#paint82_linear_5811_35678)"/>
<path d="M50.6955 0H50.083V62.1616H50.6955V0Z" fill="url(#paint83_linear_5811_35678)"/>
<path d="M51.2922 0H50.6797V62.1616H51.2922V0Z" fill="url(#paint84_linear_5811_35678)"/>
<path d="M51.8752 0H51.2627V62.1616H51.8752V0Z" fill="url(#paint85_linear_5811_35678)"/>
<path d="M52.5002 0H51.8877V62.1616H52.5002V0Z" fill="url(#paint86_linear_5811_35678)"/>
<path d="M53.1115 0H52.499V62.1616H53.1115V0Z" fill="url(#paint87_linear_5811_35678)"/>
<path d="M53.7375 0H53.125V62.1616H53.7375V0Z" fill="url(#paint88_linear_5811_35678)"/>
<path d="M54.3342 0H53.7217V62.1616H54.3342V0Z" fill="url(#paint89_linear_5811_35678)"/>
<path d="M54.9455 0H54.333V62.1616H54.9455V0Z" fill="url(#paint90_linear_5811_35678)"/>
<path d="M55.5569 0H54.9443V62.1616H55.5569V0Z" fill="url(#paint91_linear_5811_35678)"/>
<path d="M56.1682 0H55.5557V62.1616H56.1682V0Z" fill="url(#paint92_linear_5811_35678)"/>
<path d="M56.7795 0H56.167V62.1616H56.7795V0Z" fill="url(#paint93_linear_5811_35678)"/>
<path d="M57.4045 0H56.792V62.1616H57.4045V0Z" fill="url(#paint94_linear_5811_35678)"/>
<path d="M58.0022 0H57.3896V62.1616H58.0022V0Z" fill="url(#paint95_linear_5811_35678)"/>
<path d="M58.6272 0H58.0146V62.1616H58.6272V0Z" fill="url(#paint96_linear_5811_35678)"/>
<path d="M59.2248 0H58.6123V62.1616H59.2248V0Z" fill="url(#paint97_linear_5811_35678)"/>
<path d="M59.8498 0H59.2373V62.1616H59.8498V0Z" fill="url(#paint98_linear_5811_35678)"/>
<path d="M60.4475 0H59.835V62.1616H60.4475V0Z" fill="url(#paint99_linear_5811_35678)"/>
<path d="M61.0588 0H60.4463V62.1616H61.0588V0Z" fill="url(#paint100_linear_5811_35678)"/>
<path d="M61.6701 0H61.0576V62.1616H61.6701V0Z" fill="url(#paint101_linear_5811_35678)"/>
</g>
<path d="M13.2476 30.5484H55.3052C55.3052 16.9436 44.3211 5.87109 30.825 5.87109C17.3288 5.87109 6.34473 16.9436 6.34473 30.5484H13.2408H13.2476ZM30.8319 12.8227C38.0858 12.8227 44.328 17.2766 47.0121 23.6107H14.6447C17.3288 17.2766 23.5711 12.8227 30.825 12.8227H30.8319Z" fill="#19417F"/>
<path d="M47.7771 36.6346C45.6367 44.0441 38.8783 49.4971 30.8467 49.4971C22.8151 49.4971 15.6851 43.7596 13.7443 36.0449L8.32105 40.3463L8.06641 40.5752C11.6177 49.7815 20.4751 56.3307 30.8467 56.3307C41.2183 56.3307 49.7592 50.0244 53.4343 41.0817L47.7771 36.6416V36.6346Z" fill="white"/>
<defs>
<linearGradient id="paint0_linear_5811_35678" x1="30.8355" y1="0" x2="30.8355" y2="62.1616" gradientUnits="userSpaceOnUse">
<stop stop-color="#73CAEB"/>
<stop offset="0.16" stop-color="#69BCE0"/>
<stop offset="0.44" stop-color="#5197C3"/>
<stop offset="0.83" stop-color="#2B5D95"/>
<stop offset="1" stop-color="#19417F"/>
</linearGradient>
<linearGradient id="paint1_linear_5811_35678" x1="0.30282" y1="0" x2="0.30282" y2="62.1616" gradientUnits="userSpaceOnUse">
<stop stop-color="#73CAEB"/>
<stop offset="0.16" stop-color="#69BCE0"/>
<stop offset="0.44" stop-color="#5197C3"/>
<stop offset="0.83" stop-color="#2B5D95"/>
<stop offset="1" stop-color="#19417F"/>
</linearGradient>
<linearGradient id="paint2_linear_5811_35678" x1="0.914148" y1="0" x2="0.914148" y2="62.1616" gradientUnits="userSpaceOnUse">
<stop stop-color="#73CAEB"/>
<stop offset="0.16" stop-color="#69BCE0"/>
<stop offset="0.44" stop-color="#5197C3"/>
<stop offset="0.83" stop-color="#2B5D95"/>
<stop offset="1" stop-color="#19417F"/>
</linearGradient>
<linearGradient id="paint3_linear_5811_35678" x1="1.51771" y1="0" x2="1.51771" y2="62.1616" gradientUnits="userSpaceOnUse">
<stop stop-color="#73CAEB"/>
<stop offset="0.16" stop-color="#69BCE0"/>
<stop offset="0.44" stop-color="#5197C3"/>
<stop offset="0.83" stop-color="#2B5D95"/>
<stop offset="1" stop-color="#19417F"/>
</linearGradient>
<linearGradient id="paint4_linear_5811_35678" x1="2.1368" y1="0" x2="2.1368" y2="62.1616" gradientUnits="userSpaceOnUse">
<stop stop-color="#73CAEB"/>
<stop offset="0.16" stop-color="#69BCE0"/>
<stop offset="0.44" stop-color="#5197C3"/>
<stop offset="0.83" stop-color="#2B5D95"/>
<stop offset="1" stop-color="#19417F"/>
</linearGradient>
<linearGradient id="paint5_linear_5811_35678" x1="2.74813" y1="0" x2="2.74813" y2="62.1616" gradientUnits="userSpaceOnUse">
<stop stop-color="#73CAEB"/>
<stop offset="0.16" stop-color="#69BCE0"/>
<stop offset="0.44" stop-color="#5197C3"/>
<stop offset="0.83" stop-color="#2B5D95"/>
<stop offset="1" stop-color="#19417F"/>
</linearGradient>
<linearGradient id="paint6_linear_5811_35678" x1="3.34481" y1="0" x2="3.34481" y2="62.1616" gradientUnits="userSpaceOnUse">
<stop stop-color="#73CAEB"/>
<stop offset="0.16" stop-color="#69BCE0"/>
<stop offset="0.44" stop-color="#5197C3"/>
<stop offset="0.83" stop-color="#2B5D95"/>
<stop offset="1" stop-color="#19417F"/>
</linearGradient>
<linearGradient id="paint7_linear_5811_35678" x1="3.96302" y1="0" x2="3.96302" y2="62.1616" gradientUnits="userSpaceOnUse">
<stop stop-color="#73CAEB"/>
<stop offset="0.16" stop-color="#69BCE0"/>
<stop offset="0.44" stop-color="#5197C3"/>
<stop offset="0.83" stop-color="#2B5D95"/>
<stop offset="1" stop-color="#19417F"/>
</linearGradient>
<linearGradient id="paint8_linear_5811_35678" x1="4.56747" y1="0" x2="4.56747" y2="62.1616" gradientUnits="userSpaceOnUse">
<stop stop-color="#73CAEB"/>
<stop offset="0.16" stop-color="#69BCE0"/>
<stop offset="0.44" stop-color="#5197C3"/>
<stop offset="0.83" stop-color="#2B5D95"/>
<stop offset="1" stop-color="#19417F"/>
</linearGradient>
<linearGradient id="paint9_linear_5811_35678" x1="5.20712" y1="0" x2="5.20712" y2="62.1616" gradientUnits="userSpaceOnUse">
<stop stop-color="#73CAEB"/>
<stop offset="0.16" stop-color="#69BCE0"/>
<stop offset="0.44" stop-color="#5197C3"/>
<stop offset="0.83" stop-color="#2B5D95"/>
<stop offset="1" stop-color="#19417F"/>
</linearGradient>
<linearGradient id="paint10_linear_5811_35678" x1="5.79701" y1="0" x2="5.79701" y2="62.1616" gradientUnits="userSpaceOnUse">
<stop stop-color="#73CAEB"/>
<stop offset="0.16" stop-color="#69BCE0"/>
<stop offset="0.44" stop-color="#5197C3"/>
<stop offset="0.83" stop-color="#2B5D95"/>
<stop offset="1" stop-color="#19417F"/>
</linearGradient>
<linearGradient id="paint11_linear_5811_35678" x1="6.4161" y1="0" x2="6.4161" y2="62.1616" gradientUnits="userSpaceOnUse">
<stop stop-color="#73CAEB"/>
<stop offset="0.16" stop-color="#69BCE0"/>
<stop offset="0.44" stop-color="#5197C3"/>
<stop offset="0.83" stop-color="#2B5D95"/>
<stop offset="1" stop-color="#19417F"/>
</linearGradient>
<linearGradient id="paint12_linear_5811_35678" x1="6.99813" y1="0" x2="6.99813" y2="62.1616" gradientUnits="userSpaceOnUse">
<stop stop-color="#73CAEB"/>
<stop offset="0.16" stop-color="#69BCE0"/>
<stop offset="0.44" stop-color="#5197C3"/>
<stop offset="0.83" stop-color="#2B5D95"/>
<stop offset="1" stop-color="#19417F"/>
</linearGradient>
<linearGradient id="paint13_linear_5811_35678" x1="7.63778" y1="0" x2="7.63778" y2="62.1616" gradientUnits="userSpaceOnUse">
<stop stop-color="#73CAEB"/>
<stop offset="0.16" stop-color="#69BCE0"/>
<stop offset="0.44" stop-color="#5197C3"/>
<stop offset="0.83" stop-color="#2B5D95"/>
<stop offset="1" stop-color="#19417F"/>
</linearGradient>
<linearGradient id="paint14_linear_5811_35678" x1="8.25599" y1="0" x2="8.25599" y2="62.1616" gradientUnits="userSpaceOnUse">
<stop stop-color="#73CAEB"/>
<stop offset="0.16" stop-color="#69BCE0"/>
<stop offset="0.44" stop-color="#5197C3"/>
<stop offset="0.83" stop-color="#2B5D95"/>
<stop offset="1" stop-color="#19417F"/>
</linearGradient>
<linearGradient id="paint15_linear_5811_35678" x1="8.83212" y1="0" x2="8.83212" y2="62.1616" gradientUnits="userSpaceOnUse">
<stop stop-color="#73CAEB"/>
<stop offset="0.16" stop-color="#69BCE0"/>
<stop offset="0.44" stop-color="#5197C3"/>
<stop offset="0.83" stop-color="#2B5D95"/>
<stop offset="1" stop-color="#19417F"/>
</linearGradient>
<linearGradient id="paint16_linear_5811_35678" x1="9.45809" y1="0" x2="9.45809" y2="62.1616" gradientUnits="userSpaceOnUse">
<stop stop-color="#73CAEB"/>
<stop offset="0.16" stop-color="#69BCE0"/>
<stop offset="0.44" stop-color="#5197C3"/>
<stop offset="0.83" stop-color="#2B5D95"/>
<stop offset="1" stop-color="#19417F"/>
</linearGradient>
<linearGradient id="paint17_linear_5811_35678" x1="10.0617" y1="0" x2="10.0617" y2="62.1616" gradientUnits="userSpaceOnUse">
<stop stop-color="#73CAEB"/>
<stop offset="0.16" stop-color="#69BCE0"/>
<stop offset="0.44" stop-color="#5197C3"/>
<stop offset="0.83" stop-color="#2B5D95"/>
<stop offset="1" stop-color="#19417F"/>
</linearGradient>
<linearGradient id="paint18_linear_5811_35678" x1="10.6807" y1="0" x2="10.6807" y2="62.1616" gradientUnits="userSpaceOnUse">
<stop stop-color="#73CAEB"/>
<stop offset="0.16" stop-color="#69BCE0"/>
<stop offset="0.44" stop-color="#5197C3"/>
<stop offset="0.83" stop-color="#2B5D95"/>
<stop offset="1" stop-color="#19417F"/>
</linearGradient>
<linearGradient id="paint19_linear_5811_35678" x1="11.2921" y1="0" x2="11.2921" y2="62.1616" gradientUnits="userSpaceOnUse">
<stop stop-color="#73CAEB"/>
<stop offset="0.16" stop-color="#69BCE0"/>
<stop offset="0.44" stop-color="#5197C3"/>
<stop offset="0.83" stop-color="#2B5D95"/>
<stop offset="1" stop-color="#19417F"/>
</linearGradient>
<linearGradient id="paint20_linear_5811_35678" x1="11.9034" y1="0" x2="11.9034" y2="62.1616" gradientUnits="userSpaceOnUse">
<stop stop-color="#73CAEB"/>
<stop offset="0.16" stop-color="#69BCE0"/>
<stop offset="0.44" stop-color="#5197C3"/>
<stop offset="0.83" stop-color="#2B5D95"/>
<stop offset="1" stop-color="#19417F"/>
</linearGradient>
<linearGradient id="paint21_linear_5811_35678" x1="12.507" y1="0" x2="12.507" y2="62.1616" gradientUnits="userSpaceOnUse">
<stop stop-color="#73CAEB"/>
<stop offset="0.16" stop-color="#69BCE0"/>
<stop offset="0.44" stop-color="#5197C3"/>
<stop offset="0.83" stop-color="#2B5D95"/>
<stop offset="1" stop-color="#19417F"/>
</linearGradient>
<linearGradient id="paint22_linear_5811_35678" x1="13.1251" y1="0" x2="13.1251" y2="62.1616" gradientUnits="userSpaceOnUse">
<stop stop-color="#73CAEB"/>
<stop offset="0.16" stop-color="#69BCE0"/>
<stop offset="0.44" stop-color="#5197C3"/>
<stop offset="0.83" stop-color="#2B5D95"/>
<stop offset="1" stop-color="#19417F"/>
</linearGradient>
<linearGradient id="paint23_linear_5811_35678" x1="13.7511" y1="0" x2="13.7511" y2="62.1616" gradientUnits="userSpaceOnUse">
<stop stop-color="#73CAEB"/>
<stop offset="0.16" stop-color="#69BCE0"/>
<stop offset="0.44" stop-color="#5197C3"/>
<stop offset="0.83" stop-color="#2B5D95"/>
<stop offset="1" stop-color="#19417F"/>
</linearGradient>
<linearGradient id="paint24_linear_5811_35678" x1="14.341" y1="0" x2="14.341" y2="62.1616" gradientUnits="userSpaceOnUse">
<stop stop-color="#73CAEB"/>
<stop offset="0.16" stop-color="#69BCE0"/>
<stop offset="0.44" stop-color="#5197C3"/>
<stop offset="0.83" stop-color="#2B5D95"/>
<stop offset="1" stop-color="#19417F"/>
</linearGradient>
<linearGradient id="paint25_linear_5811_35678" x1="14.9454" y1="0" x2="14.9454" y2="62.1616" gradientUnits="userSpaceOnUse">
<stop stop-color="#73CAEB"/>
<stop offset="0.16" stop-color="#69BCE0"/>
<stop offset="0.44" stop-color="#5197C3"/>
<stop offset="0.83" stop-color="#2B5D95"/>
<stop offset="1" stop-color="#19417F"/>
</linearGradient>
<linearGradient id="paint26_linear_5811_35678" x1="15.5704" y1="0" x2="15.5704" y2="62.1616" gradientUnits="userSpaceOnUse">
<stop stop-color="#73CAEB"/>
<stop offset="0.16" stop-color="#69BCE0"/>
<stop offset="0.44" stop-color="#5197C3"/>
<stop offset="0.83" stop-color="#2B5D95"/>
<stop offset="1" stop-color="#19417F"/>
</linearGradient>
<linearGradient id="paint27_linear_5811_35678" x1="16.1681" y1="0" x2="16.1681" y2="62.1616" gradientUnits="userSpaceOnUse">
<stop stop-color="#73CAEB"/>
<stop offset="0.16" stop-color="#69BCE0"/>
<stop offset="0.44" stop-color="#5197C3"/>
<stop offset="0.83" stop-color="#2B5D95"/>
<stop offset="1" stop-color="#19417F"/>
</linearGradient>
<linearGradient id="paint28_linear_5811_35678" x1="16.7999" y1="0" x2="16.7999" y2="62.1616" gradientUnits="userSpaceOnUse">
<stop stop-color="#73CAEB"/>
<stop offset="0.16" stop-color="#69BCE0"/>
<stop offset="0.44" stop-color="#5197C3"/>
<stop offset="0.83" stop-color="#2B5D95"/>
<stop offset="1" stop-color="#19417F"/>
</linearGradient>
<linearGradient id="paint29_linear_5811_35678" x1="17.3907" y1="0" x2="17.3907" y2="62.1616" gradientUnits="userSpaceOnUse">
<stop stop-color="#73CAEB"/>
<stop offset="0.16" stop-color="#69BCE0"/>
<stop offset="0.44" stop-color="#5197C3"/>
<stop offset="0.83" stop-color="#2B5D95"/>
<stop offset="1" stop-color="#19417F"/>
</linearGradient>
<linearGradient id="paint30_linear_5811_35678" x1="18.0157" y1="0" x2="18.0157" y2="62.1616" gradientUnits="userSpaceOnUse">
<stop stop-color="#73CAEB"/>
<stop offset="0.16" stop-color="#69BCE0"/>
<stop offset="0.44" stop-color="#5197C3"/>
<stop offset="0.83" stop-color="#2B5D95"/>
<stop offset="1" stop-color="#19417F"/>
</linearGradient>
<linearGradient id="paint31_linear_5811_35678" x1="18.6339" y1="0" x2="18.6339" y2="62.1616" gradientUnits="userSpaceOnUse">
<stop stop-color="#73CAEB"/>
<stop offset="0.16" stop-color="#69BCE0"/>
<stop offset="0.44" stop-color="#5197C3"/>
<stop offset="0.83" stop-color="#2B5D95"/>
<stop offset="1" stop-color="#19417F"/>
</linearGradient>
<linearGradient id="paint32_linear_5811_35678" x1="19.2384" y1="0" x2="19.2384" y2="62.1616" gradientUnits="userSpaceOnUse">
<stop stop-color="#73CAEB"/>
<stop offset="0.16" stop-color="#69BCE0"/>
<stop offset="0.44" stop-color="#5197C3"/>
<stop offset="0.83" stop-color="#2B5D95"/>
<stop offset="1" stop-color="#19417F"/>
</linearGradient>
<linearGradient id="paint33_linear_5811_35678" x1="19.8497" y1="0" x2="19.8497" y2="62.1616" gradientUnits="userSpaceOnUse">
<stop stop-color="#73CAEB"/>
<stop offset="0.16" stop-color="#69BCE0"/>
<stop offset="0.44" stop-color="#5197C3"/>
<stop offset="0.83" stop-color="#2B5D95"/>
<stop offset="1" stop-color="#19417F"/>
</linearGradient>
<linearGradient id="paint34_linear_5811_35678" x1="20.461" y1="0" x2="20.461" y2="62.1616" gradientUnits="userSpaceOnUse">
<stop stop-color="#73CAEB"/>
<stop offset="0.16" stop-color="#69BCE0"/>
<stop offset="0.44" stop-color="#5197C3"/>
<stop offset="0.83" stop-color="#2B5D95"/>
<stop offset="1" stop-color="#19417F"/>
</linearGradient>
<linearGradient id="paint35_linear_5811_35678" x1="21.0646" y1="0" x2="21.0646" y2="62.1616" gradientUnits="userSpaceOnUse">
<stop stop-color="#73CAEB"/>
<stop offset="0.16" stop-color="#69BCE0"/>
<stop offset="0.44" stop-color="#5197C3"/>
<stop offset="0.83" stop-color="#2B5D95"/>
<stop offset="1" stop-color="#19417F"/>
</linearGradient>
<linearGradient id="paint36_linear_5811_35678" x1="21.669" y1="0" x2="21.669" y2="62.1616" gradientUnits="userSpaceOnUse">
<stop stop-color="#73CAEB"/>
<stop offset="0.16" stop-color="#69BCE0"/>
<stop offset="0.44" stop-color="#5197C3"/>
<stop offset="0.83" stop-color="#2B5D95"/>
<stop offset="1" stop-color="#19417F"/>
</linearGradient>
<linearGradient id="paint37_linear_5811_35678" x1="22.2804" y1="0" x2="22.2804" y2="62.1616" gradientUnits="userSpaceOnUse">
<stop stop-color="#73CAEB"/>
<stop offset="0.16" stop-color="#69BCE0"/>
<stop offset="0.44" stop-color="#5197C3"/>
<stop offset="0.83" stop-color="#2B5D95"/>
<stop offset="1" stop-color="#19417F"/>
</linearGradient>
<linearGradient id="paint38_linear_5811_35678" x1="22.92" y1="0" x2="22.92" y2="62.1616" gradientUnits="userSpaceOnUse">
<stop stop-color="#73CAEB"/>
<stop offset="0.16" stop-color="#69BCE0"/>
<stop offset="0.44" stop-color="#5197C3"/>
<stop offset="0.83" stop-color="#2B5D95"/>
<stop offset="1" stop-color="#19417F"/>
</linearGradient>
<linearGradient id="paint39_linear_5811_35678" x1="23.5099" y1="0" x2="23.5099" y2="62.1616" gradientUnits="userSpaceOnUse">
<stop stop-color="#73CAEB"/>
<stop offset="0.16" stop-color="#69BCE0"/>
<stop offset="0.44" stop-color="#5197C3"/>
<stop offset="0.83" stop-color="#2B5D95"/>
<stop offset="1" stop-color="#19417F"/>
</linearGradient>
<linearGradient id="paint40_linear_5811_35678" x1="24.1143" y1="0" x2="24.1143" y2="62.1616" gradientUnits="userSpaceOnUse">
<stop stop-color="#73CAEB"/>
<stop offset="0.16" stop-color="#69BCE0"/>
<stop offset="0.44" stop-color="#5197C3"/>
<stop offset="0.83" stop-color="#2B5D95"/>
<stop offset="1" stop-color="#19417F"/>
</linearGradient>
<linearGradient id="paint41_linear_5811_35678" x1="24.7257" y1="0" x2="24.7257" y2="62.1616" gradientUnits="userSpaceOnUse">
<stop stop-color="#73CAEB"/>
<stop offset="0.16" stop-color="#69BCE0"/>
<stop offset="0.44" stop-color="#5197C3"/>
<stop offset="0.83" stop-color="#2B5D95"/>
<stop offset="1" stop-color="#19417F"/>
</linearGradient>
<linearGradient id="paint42_linear_5811_35678" x1="25.3292" y1="0" x2="25.3292" y2="62.1616" gradientUnits="userSpaceOnUse">
<stop stop-color="#73CAEB"/>
<stop offset="0.16" stop-color="#69BCE0"/>
<stop offset="0.44" stop-color="#5197C3"/>
<stop offset="0.83" stop-color="#2B5D95"/>
<stop offset="1" stop-color="#19417F"/>
</linearGradient>
<linearGradient id="paint43_linear_5811_35678" x1="25.963" y1="0" x2="25.963" y2="62.1616" gradientUnits="userSpaceOnUse">
<stop stop-color="#73CAEB"/>
<stop offset="0.16" stop-color="#69BCE0"/>
<stop offset="0.44" stop-color="#5197C3"/>
<stop offset="0.83" stop-color="#2B5D95"/>
<stop offset="1" stop-color="#19417F"/>
</linearGradient>
<linearGradient id="paint44_linear_5811_35678" x1="26.545" y1="0" x2="26.545" y2="62.1616" gradientUnits="userSpaceOnUse">
<stop stop-color="#73CAEB"/>
<stop offset="0.16" stop-color="#69BCE0"/>
<stop offset="0.44" stop-color="#5197C3"/>
<stop offset="0.83" stop-color="#2B5D95"/>
<stop offset="1" stop-color="#19417F"/>
</linearGradient>
<linearGradient id="paint45_linear_5811_35678" x1="27.171" y1="0" x2="27.171" y2="62.1616" gradientUnits="userSpaceOnUse">
<stop stop-color="#73CAEB"/>
<stop offset="0.16" stop-color="#69BCE0"/>
<stop offset="0.44" stop-color="#5197C3"/>
<stop offset="0.83" stop-color="#2B5D95"/>
<stop offset="1" stop-color="#19417F"/>
</linearGradient>
<linearGradient id="paint46_linear_5811_35678" x1="27.7745" y1="0" x2="27.7745" y2="62.1616" gradientUnits="userSpaceOnUse">
<stop stop-color="#73CAEB"/>
<stop offset="0.16" stop-color="#69BCE0"/>
<stop offset="0.44" stop-color="#5197C3"/>
<stop offset="0.83" stop-color="#2B5D95"/>
<stop offset="1" stop-color="#19417F"/>
</linearGradient>
<linearGradient id="paint47_linear_5811_35678" x1="28.3936" y1="0" x2="28.3936" y2="62.1616" gradientUnits="userSpaceOnUse">
<stop stop-color="#73CAEB"/>
<stop offset="0.16" stop-color="#69BCE0"/>
<stop offset="0.44" stop-color="#5197C3"/>
<stop offset="0.83" stop-color="#2B5D95"/>
<stop offset="1" stop-color="#19417F"/>
</linearGradient>
<linearGradient id="paint48_linear_5811_35678" x1="29.005" y1="0" x2="29.005" y2="62.1616" gradientUnits="userSpaceOnUse">
<stop stop-color="#73CAEB"/>
<stop offset="0.16" stop-color="#69BCE0"/>
<stop offset="0.44" stop-color="#5197C3"/>
<stop offset="0.83" stop-color="#2B5D95"/>
<stop offset="1" stop-color="#19417F"/>
</linearGradient>
<linearGradient id="paint49_linear_5811_35678" x1="29.6085" y1="0" x2="29.6085" y2="62.1616" gradientUnits="userSpaceOnUse">
<stop stop-color="#73CAEB"/>
<stop offset="0.16" stop-color="#69BCE0"/>
<stop offset="0.44" stop-color="#5197C3"/>
<stop offset="0.83" stop-color="#2B5D95"/>
<stop offset="1" stop-color="#19417F"/>
</linearGradient>
<linearGradient id="paint50_linear_5811_35678" x1="30.2276" y1="0" x2="30.2276" y2="62.1616" gradientUnits="userSpaceOnUse">
<stop stop-color="#73CAEB"/>
<stop offset="0.16" stop-color="#69BCE0"/>
<stop offset="0.44" stop-color="#5197C3"/>
<stop offset="0.83" stop-color="#2B5D95"/>
<stop offset="1" stop-color="#19417F"/>
</linearGradient>
<linearGradient id="paint51_linear_5811_35678" x1="30.839" y1="0" x2="30.839" y2="62.1616" gradientUnits="userSpaceOnUse">
<stop stop-color="#73CAEB"/>
<stop offset="0.16" stop-color="#69BCE0"/>
<stop offset="0.44" stop-color="#5197C3"/>
<stop offset="0.83" stop-color="#2B5D95"/>
<stop offset="1" stop-color="#19417F"/>
</linearGradient>
<linearGradient id="paint52_linear_5811_35678" x1="31.4356" y1="0" x2="31.4356" y2="62.1616" gradientUnits="userSpaceOnUse">
<stop stop-color="#73CAEB"/>
<stop offset="0.16" stop-color="#69BCE0"/>
<stop offset="0.44" stop-color="#5197C3"/>
<stop offset="0.83" stop-color="#2B5D95"/>
<stop offset="1" stop-color="#19417F"/>
</linearGradient>
<linearGradient id="paint53_linear_5811_35678" x1="32.0538" y1="0" x2="32.0538" y2="62.1616" gradientUnits="userSpaceOnUse">
<stop stop-color="#73CAEB"/>
<stop offset="0.16" stop-color="#69BCE0"/>
<stop offset="0.44" stop-color="#5197C3"/>
<stop offset="0.83" stop-color="#2B5D95"/>
<stop offset="1" stop-color="#19417F"/>
</linearGradient>
<linearGradient id="paint54_linear_5811_35678" x1="32.672" y1="0" x2="32.672" y2="62.1616" gradientUnits="userSpaceOnUse">
<stop stop-color="#73CAEB"/>
<stop offset="0.16" stop-color="#69BCE0"/>
<stop offset="0.44" stop-color="#5197C3"/>
<stop offset="0.83" stop-color="#2B5D95"/>
<stop offset="1" stop-color="#19417F"/>
</linearGradient>
<linearGradient id="paint55_linear_5811_35678" x1="33.2696" y1="0" x2="33.2696" y2="62.1616" gradientUnits="userSpaceOnUse">
<stop stop-color="#73CAEB"/>
<stop offset="0.16" stop-color="#69BCE0"/>
<stop offset="0.44" stop-color="#5197C3"/>
<stop offset="0.83" stop-color="#2B5D95"/>
<stop offset="1" stop-color="#19417F"/>
</linearGradient>
<linearGradient id="paint56_linear_5811_35678" x1="33.8878" y1="0" x2="33.8878" y2="62.1616" gradientUnits="userSpaceOnUse">
<stop stop-color="#73CAEB"/>
<stop offset="0.16" stop-color="#69BCE0"/>
<stop offset="0.44" stop-color="#5197C3"/>
<stop offset="0.83" stop-color="#2B5D95"/>
<stop offset="1" stop-color="#19417F"/>
</linearGradient>
<linearGradient id="paint57_linear_5811_35678" x1="34.4776" y1="0" x2="34.4776" y2="62.1616" gradientUnits="userSpaceOnUse">
<stop stop-color="#73CAEB"/>
<stop offset="0.16" stop-color="#69BCE0"/>
<stop offset="0.44" stop-color="#5197C3"/>
<stop offset="0.83" stop-color="#2B5D95"/>
<stop offset="1" stop-color="#19417F"/>
</linearGradient>
<linearGradient id="paint58_linear_5811_35678" x1="35.1036" y1="0" x2="35.1036" y2="62.1616" gradientUnits="userSpaceOnUse">
<stop stop-color="#73CAEB"/>
<stop offset="0.16" stop-color="#69BCE0"/>
<stop offset="0.44" stop-color="#5197C3"/>
<stop offset="0.83" stop-color="#2B5D95"/>
<stop offset="1" stop-color="#19417F"/>
</linearGradient>
<linearGradient id="paint59_linear_5811_35678" x1="35.7149" y1="0" x2="35.7149" y2="62.1616" gradientUnits="userSpaceOnUse">
<stop stop-color="#73CAEB"/>
<stop offset="0.16" stop-color="#69BCE0"/>
<stop offset="0.44" stop-color="#5197C3"/>
<stop offset="0.83" stop-color="#2B5D95"/>
<stop offset="1" stop-color="#19417F"/>
</linearGradient>
<linearGradient id="paint60_linear_5811_35678" x1="36.3468" y1="0" x2="36.3468" y2="62.1616" gradientUnits="userSpaceOnUse">
<stop stop-color="#73CAEB"/>
<stop offset="0.16" stop-color="#69BCE0"/>
<stop offset="0.44" stop-color="#5197C3"/>
<stop offset="0.83" stop-color="#2B5D95"/>
<stop offset="1" stop-color="#19417F"/>
</linearGradient>
<linearGradient id="paint61_linear_5811_35678" x1="36.9229" y1="0" x2="36.9229" y2="62.1616" gradientUnits="userSpaceOnUse">
<stop stop-color="#73CAEB"/>
<stop offset="0.16" stop-color="#69BCE0"/>
<stop offset="0.44" stop-color="#5197C3"/>
<stop offset="0.83" stop-color="#2B5D95"/>
<stop offset="1" stop-color="#19417F"/>
</linearGradient>
<linearGradient id="paint62_linear_5811_35678" x1="37.5489" y1="0" x2="37.5489" y2="62.1616" gradientUnits="userSpaceOnUse">
<stop stop-color="#73CAEB"/>
<stop offset="0.16" stop-color="#69BCE0"/>
<stop offset="0.44" stop-color="#5197C3"/>
<stop offset="0.83" stop-color="#2B5D95"/>
<stop offset="1" stop-color="#19417F"/>
</linearGradient>
<linearGradient id="paint63_linear_5811_35678" x1="38.1661" y1="0" x2="38.1661" y2="62.1616" gradientUnits="userSpaceOnUse">
<stop stop-color="#73CAEB"/>
<stop offset="0.16" stop-color="#69BCE0"/>
<stop offset="0.44" stop-color="#5197C3"/>
<stop offset="0.83" stop-color="#2B5D95"/>
<stop offset="1" stop-color="#19417F"/>
</linearGradient>
<linearGradient id="paint64_linear_5811_35678" x1="38.7852" y1="0" x2="38.7852" y2="62.1616" gradientUnits="userSpaceOnUse">
<stop stop-color="#73CAEB"/>
<stop offset="0.16" stop-color="#69BCE0"/>
<stop offset="0.44" stop-color="#5197C3"/>
<stop offset="0.83" stop-color="#2B5D95"/>
<stop offset="1" stop-color="#19417F"/>
</linearGradient>
<linearGradient id="paint65_linear_5811_35678" x1="39.3819" y1="0" x2="39.3819" y2="62.1616" gradientUnits="userSpaceOnUse">
<stop stop-color="#73CAEB"/>
<stop offset="0.16" stop-color="#69BCE0"/>
<stop offset="0.44" stop-color="#5197C3"/>
<stop offset="0.83" stop-color="#2B5D95"/>
<stop offset="1" stop-color="#19417F"/>
</linearGradient>
<linearGradient id="paint66_linear_5811_35678" x1="39.9933" y1="0" x2="39.9933" y2="62.1616" gradientUnits="userSpaceOnUse">
<stop stop-color="#73CAEB"/>
<stop offset="0.16" stop-color="#69BCE0"/>
<stop offset="0.44" stop-color="#5197C3"/>
<stop offset="0.83" stop-color="#2B5D95"/>
<stop offset="1" stop-color="#19417F"/>
</linearGradient>
<linearGradient id="paint67_linear_5811_35678" x1="40.5978" y1="0" x2="40.5978" y2="62.1616" gradientUnits="userSpaceOnUse">
<stop stop-color="#73CAEB"/>
<stop offset="0.16" stop-color="#69BCE0"/>
<stop offset="0.44" stop-color="#5197C3"/>
<stop offset="0.83" stop-color="#2B5D95"/>
<stop offset="1" stop-color="#19417F"/>
</linearGradient>
<linearGradient id="paint68_linear_5811_35678" x1="41.2022" y1="0" x2="41.2022" y2="62.1616" gradientUnits="userSpaceOnUse">
<stop stop-color="#73CAEB"/>
<stop offset="0.16" stop-color="#69BCE0"/>
<stop offset="0.44" stop-color="#5197C3"/>
<stop offset="0.83" stop-color="#2B5D95"/>
<stop offset="1" stop-color="#19417F"/>
</linearGradient>
<linearGradient id="paint69_linear_5811_35678" x1="41.8272" y1="0" x2="41.8272" y2="62.1616" gradientUnits="userSpaceOnUse">
<stop stop-color="#73CAEB"/>
<stop offset="0.16" stop-color="#69BCE0"/>
<stop offset="0.44" stop-color="#5197C3"/>
<stop offset="0.83" stop-color="#2B5D95"/>
<stop offset="1" stop-color="#19417F"/>
</linearGradient>
<linearGradient id="paint70_linear_5811_35678" x1="42.4318" y1="0" x2="42.4318" y2="62.1616" gradientUnits="userSpaceOnUse">
<stop stop-color="#73CAEB"/>
<stop offset="0.16" stop-color="#69BCE0"/>
<stop offset="0.44" stop-color="#5197C3"/>
<stop offset="0.83" stop-color="#2B5D95"/>
<stop offset="1" stop-color="#19417F"/>
</linearGradient>
<linearGradient id="paint71_linear_5811_35678" x1="43.0362" y1="0" x2="43.0362" y2="62.1616" gradientUnits="userSpaceOnUse">
<stop stop-color="#73CAEB"/>
<stop offset="0.16" stop-color="#69BCE0"/>
<stop offset="0.44" stop-color="#5197C3"/>
<stop offset="0.83" stop-color="#2B5D95"/>
<stop offset="1" stop-color="#19417F"/>
</linearGradient>
<linearGradient id="paint72_linear_5811_35678" x1="43.6466" y1="0" x2="43.6466" y2="62.1616" gradientUnits="userSpaceOnUse">
<stop stop-color="#73CAEB"/>
<stop offset="0.16" stop-color="#69BCE0"/>
<stop offset="0.44" stop-color="#5197C3"/>
<stop offset="0.83" stop-color="#2B5D95"/>
<stop offset="1" stop-color="#19417F"/>
</linearGradient>
<linearGradient id="paint73_linear_5811_35678" x1="44.2725" y1="0" x2="44.2725" y2="62.1616" gradientUnits="userSpaceOnUse">
<stop stop-color="#73CAEB"/>
<stop offset="0.16" stop-color="#69BCE0"/>
<stop offset="0.44" stop-color="#5197C3"/>
<stop offset="0.83" stop-color="#2B5D95"/>
<stop offset="1" stop-color="#19417F"/>
</linearGradient>
<linearGradient id="paint74_linear_5811_35678" x1="44.8761" y1="0" x2="44.8761" y2="62.1616" gradientUnits="userSpaceOnUse">
<stop stop-color="#73CAEB"/>
<stop offset="0.16" stop-color="#69BCE0"/>
<stop offset="0.44" stop-color="#5197C3"/>
<stop offset="0.83" stop-color="#2B5D95"/>
<stop offset="1" stop-color="#19417F"/>
</linearGradient>
<linearGradient id="paint75_linear_5811_35678" x1="45.4806" y1="0" x2="45.4806" y2="62.1616" gradientUnits="userSpaceOnUse">
<stop stop-color="#73CAEB"/>
<stop offset="0.16" stop-color="#69BCE0"/>
<stop offset="0.44" stop-color="#5197C3"/>
<stop offset="0.83" stop-color="#2B5D95"/>
<stop offset="1" stop-color="#19417F"/>
</linearGradient>
<linearGradient id="paint76_linear_5811_35678" x1="46.0782" y1="0" x2="46.0782" y2="62.1616" gradientUnits="userSpaceOnUse">
<stop stop-color="#73CAEB"/>
<stop offset="0.16" stop-color="#69BCE0"/>
<stop offset="0.44" stop-color="#5197C3"/>
<stop offset="0.83" stop-color="#2B5D95"/>
<stop offset="1" stop-color="#19417F"/>
</linearGradient>
<linearGradient id="paint77_linear_5811_35678" x1="46.7101" y1="0" x2="46.7101" y2="62.1616" gradientUnits="userSpaceOnUse">
<stop stop-color="#73CAEB"/>
<stop offset="0.16" stop-color="#69BCE0"/>
<stop offset="0.44" stop-color="#5197C3"/>
<stop offset="0.83" stop-color="#2B5D95"/>
<stop offset="1" stop-color="#19417F"/>
</linearGradient>
<linearGradient id="paint78_linear_5811_35678" x1="47.3145" y1="0" x2="47.3145" y2="62.1616" gradientUnits="userSpaceOnUse">
<stop stop-color="#73CAEB"/>
<stop offset="0.16" stop-color="#69BCE0"/>
<stop offset="0.44" stop-color="#5197C3"/>
<stop offset="0.83" stop-color="#2B5D95"/>
<stop offset="1" stop-color="#19417F"/>
</linearGradient>
<linearGradient id="paint79_linear_5811_35678" x1="47.9405" y1="0" x2="47.9405" y2="62.1616" gradientUnits="userSpaceOnUse">
<stop stop-color="#73CAEB"/>
<stop offset="0.16" stop-color="#69BCE0"/>
<stop offset="0.44" stop-color="#5197C3"/>
<stop offset="0.83" stop-color="#2B5D95"/>
<stop offset="1" stop-color="#19417F"/>
</linearGradient>
<linearGradient id="paint80_linear_5811_35678" x1="48.5235" y1="0" x2="48.5235" y2="62.1616" gradientUnits="userSpaceOnUse">
<stop stop-color="#73CAEB"/>
<stop offset="0.16" stop-color="#69BCE0"/>
<stop offset="0.44" stop-color="#5197C3"/>
<stop offset="0.83" stop-color="#2B5D95"/>
<stop offset="1" stop-color="#19417F"/>
</linearGradient>
<linearGradient id="paint81_linear_5811_35678" x1="49.1554" y1="0" x2="49.1554" y2="62.1616" gradientUnits="userSpaceOnUse">
<stop stop-color="#73CAEB"/>
<stop offset="0.16" stop-color="#69BCE0"/>
<stop offset="0.44" stop-color="#5197C3"/>
<stop offset="0.83" stop-color="#2B5D95"/>
<stop offset="1" stop-color="#19417F"/>
</linearGradient>
<linearGradient id="paint82_linear_5811_35678" x1="49.7599" y1="0" x2="49.7599" y2="62.1616" gradientUnits="userSpaceOnUse">
<stop stop-color="#73CAEB"/>
<stop offset="0.16" stop-color="#69BCE0"/>
<stop offset="0.44" stop-color="#5197C3"/>
<stop offset="0.83" stop-color="#2B5D95"/>
<stop offset="1" stop-color="#19417F"/>
</linearGradient>
<linearGradient id="paint83_linear_5811_35678" x1="50.3858" y1="0" x2="50.3858" y2="62.1616" gradientUnits="userSpaceOnUse">
<stop stop-color="#73CAEB"/>
<stop offset="0.16" stop-color="#69BCE0"/>
<stop offset="0.44" stop-color="#5197C3"/>
<stop offset="0.83" stop-color="#2B5D95"/>
<stop offset="1" stop-color="#19417F"/>
</linearGradient>
<linearGradient id="paint84_linear_5811_35678" x1="50.9894" y1="0" x2="50.9894" y2="62.1616" gradientUnits="userSpaceOnUse">
<stop stop-color="#73CAEB"/>
<stop offset="0.16" stop-color="#69BCE0"/>
<stop offset="0.44" stop-color="#5197C3"/>
<stop offset="0.83" stop-color="#2B5D95"/>
<stop offset="1" stop-color="#19417F"/>
</linearGradient>
<linearGradient id="paint85_linear_5811_35678" x1="51.5655" y1="0" x2="51.5655" y2="62.1616" gradientUnits="userSpaceOnUse">
<stop stop-color="#73CAEB"/>
<stop offset="0.16" stop-color="#69BCE0"/>
<stop offset="0.44" stop-color="#5197C3"/>
<stop offset="0.83" stop-color="#2B5D95"/>
<stop offset="1" stop-color="#19417F"/>
</linearGradient>
<linearGradient id="paint86_linear_5811_35678" x1="52.1905" y1="0" x2="52.1905" y2="62.1616" gradientUnits="userSpaceOnUse">
<stop stop-color="#73CAEB"/>
<stop offset="0.16" stop-color="#69BCE0"/>
<stop offset="0.44" stop-color="#5197C3"/>
<stop offset="0.83" stop-color="#2B5D95"/>
<stop offset="1" stop-color="#19417F"/>
</linearGradient>
<linearGradient id="paint87_linear_5811_35678" x1="52.8018" y1="0" x2="52.8018" y2="62.1616" gradientUnits="userSpaceOnUse">
<stop stop-color="#73CAEB"/>
<stop offset="0.16" stop-color="#69BCE0"/>
<stop offset="0.44" stop-color="#5197C3"/>
<stop offset="0.83" stop-color="#2B5D95"/>
<stop offset="1" stop-color="#19417F"/>
</linearGradient>
<linearGradient id="paint88_linear_5811_35678" x1="53.4347" y1="0" x2="53.4347" y2="62.1616" gradientUnits="userSpaceOnUse">
<stop stop-color="#73CAEB"/>
<stop offset="0.16" stop-color="#69BCE0"/>
<stop offset="0.44" stop-color="#5197C3"/>
<stop offset="0.83" stop-color="#2B5D95"/>
<stop offset="1" stop-color="#19417F"/>
</linearGradient>
<linearGradient id="paint89_linear_5811_35678" x1="54.0245" y1="0" x2="54.0245" y2="62.1616" gradientUnits="userSpaceOnUse">
<stop stop-color="#73CAEB"/>
<stop offset="0.16" stop-color="#69BCE0"/>
<stop offset="0.44" stop-color="#5197C3"/>
<stop offset="0.83" stop-color="#2B5D95"/>
<stop offset="1" stop-color="#19417F"/>
</linearGradient>
<linearGradient id="paint90_linear_5811_35678" x1="54.6358" y1="0" x2="54.6358" y2="62.1616" gradientUnits="userSpaceOnUse">
<stop stop-color="#73CAEB"/>
<stop offset="0.16" stop-color="#69BCE0"/>
<stop offset="0.44" stop-color="#5197C3"/>
<stop offset="0.83" stop-color="#2B5D95"/>
<stop offset="1" stop-color="#19417F"/>
</linearGradient>
<linearGradient id="paint91_linear_5811_35678" x1="55.254" y1="0" x2="55.254" y2="62.1616" gradientUnits="userSpaceOnUse">
<stop stop-color="#73CAEB"/>
<stop offset="0.16" stop-color="#69BCE0"/>
<stop offset="0.44" stop-color="#5197C3"/>
<stop offset="0.83" stop-color="#2B5D95"/>
<stop offset="1" stop-color="#19417F"/>
</linearGradient>
<linearGradient id="paint92_linear_5811_35678" x1="55.8585" y1="0" x2="55.8585" y2="62.1616" gradientUnits="userSpaceOnUse">
<stop stop-color="#73CAEB"/>
<stop offset="0.16" stop-color="#69BCE0"/>
<stop offset="0.44" stop-color="#5197C3"/>
<stop offset="0.83" stop-color="#2B5D95"/>
<stop offset="1" stop-color="#19417F"/>
</linearGradient>
<linearGradient id="paint93_linear_5811_35678" x1="56.4698" y1="0" x2="56.4698" y2="62.1616" gradientUnits="userSpaceOnUse">
<stop stop-color="#73CAEB"/>
<stop offset="0.16" stop-color="#69BCE0"/>
<stop offset="0.44" stop-color="#5197C3"/>
<stop offset="0.83" stop-color="#2B5D95"/>
<stop offset="1" stop-color="#19417F"/>
</linearGradient>
<linearGradient id="paint94_linear_5811_35678" x1="57.0948" y1="0" x2="57.0948" y2="62.1616" gradientUnits="userSpaceOnUse">
<stop stop-color="#73CAEB"/>
<stop offset="0.16" stop-color="#69BCE0"/>
<stop offset="0.44" stop-color="#5197C3"/>
<stop offset="0.83" stop-color="#2B5D95"/>
<stop offset="1" stop-color="#19417F"/>
</linearGradient>
<linearGradient id="paint95_linear_5811_35678" x1="57.6994" y1="0" x2="57.6994" y2="62.1616" gradientUnits="userSpaceOnUse">
<stop stop-color="#73CAEB"/>
<stop offset="0.16" stop-color="#69BCE0"/>
<stop offset="0.44" stop-color="#5197C3"/>
<stop offset="0.83" stop-color="#2B5D95"/>
<stop offset="1" stop-color="#19417F"/>
</linearGradient>
<linearGradient id="paint96_linear_5811_35678" x1="58.3175" y1="0" x2="58.3175" y2="62.1616" gradientUnits="userSpaceOnUse">
<stop stop-color="#73CAEB"/>
<stop offset="0.16" stop-color="#69BCE0"/>
<stop offset="0.44" stop-color="#5197C3"/>
<stop offset="0.83" stop-color="#2B5D95"/>
<stop offset="1" stop-color="#19417F"/>
</linearGradient>
<linearGradient id="paint97_linear_5811_35678" x1="58.9151" y1="0" x2="58.9151" y2="62.1616" gradientUnits="userSpaceOnUse">
<stop stop-color="#73CAEB"/>
<stop offset="0.16" stop-color="#69BCE0"/>
<stop offset="0.44" stop-color="#5197C3"/>
<stop offset="0.83" stop-color="#2B5D95"/>
<stop offset="1" stop-color="#19417F"/>
</linearGradient>
<linearGradient id="paint98_linear_5811_35678" x1="59.547" y1="0" x2="59.547" y2="62.1616" gradientUnits="userSpaceOnUse">
<stop stop-color="#73CAEB"/>
<stop offset="0.16" stop-color="#69BCE0"/>
<stop offset="0.44" stop-color="#5197C3"/>
<stop offset="0.83" stop-color="#2B5D95"/>
<stop offset="1" stop-color="#19417F"/>
</linearGradient>
<linearGradient id="paint99_linear_5811_35678" x1="60.1378" y1="0" x2="60.1378" y2="62.1616" gradientUnits="userSpaceOnUse">
<stop stop-color="#73CAEB"/>
<stop offset="0.16" stop-color="#69BCE0"/>
<stop offset="0.44" stop-color="#5197C3"/>
<stop offset="0.83" stop-color="#2B5D95"/>
<stop offset="1" stop-color="#19417F"/>
</linearGradient>
<linearGradient id="paint100_linear_5811_35678" x1="60.7491" y1="0" x2="60.7491" y2="62.1616" gradientUnits="userSpaceOnUse">
<stop stop-color="#73CAEB"/>
<stop offset="0.16" stop-color="#69BCE0"/>
<stop offset="0.44" stop-color="#5197C3"/>
<stop offset="0.83" stop-color="#2B5D95"/>
<stop offset="1" stop-color="#19417F"/>
</linearGradient>
<linearGradient id="paint101_linear_5811_35678" x1="61.3604" y1="0" x2="61.3604" y2="62.1616" gradientUnits="userSpaceOnUse">
<stop stop-color="#73CAEB"/>
<stop offset="0.16" stop-color="#69BCE0"/>
<stop offset="0.44" stop-color="#5197C3"/>
<stop offset="0.83" stop-color="#2B5D95"/>
<stop offset="1" stop-color="#19417F"/>
</linearGradient>
</defs>
</svg>
