<svg width="220" height="44" viewBox="0 0 220 44" fill="none" xmlns="http://www.w3.org/2000/svg">
<path d="M38.1071 0H5.89286C2.63832 0 0 2.63832 0 5.89286V38.1071C0 41.3617 2.63832 44 5.89286 44H38.1071C41.3617 44 44 41.3617 44 38.1071V5.89286C44 2.63832 41.3617 0 38.1071 0Z" fill="url(#paint0_linear_57057_23642)"/>
<mask id="mask0_57057_23642" style="mask-type:luminance" maskUnits="userSpaceOnUse" x="0" y="0" width="44" height="44">
<path d="M38.1071 0H5.89286C2.63832 0 0 2.63832 0 5.89286V38.1071C0 41.3617 2.63832 44 5.89286 44H38.1071C41.3617 44 44 41.3617 44 38.1071V5.89286C44 2.63832 41.3617 0 38.1071 0Z" fill="white"/>
</mask>
<g mask="url(#mask0_57057_23642)">
<path d="M0.436994 0H0V44H0.436994V0Z" fill="url(#paint1_linear_57057_23642)"/>
<path d="M0.874494 0H0.4375V44H0.874494V0Z" fill="url(#paint2_linear_57057_23642)"/>
<path d="M1.29832 0H0.861328V44H1.29832V0Z" fill="url(#paint3_linear_57057_23642)"/>
<path d="M1.74363 0H1.30664V44H1.74363V0Z" fill="url(#paint4_linear_57057_23642)"/>
<path d="M2.17723 0H1.74023V44H2.17723V0Z" fill="url(#paint5_linear_57057_23642)"/>
<path d="M2.60692 0H2.16992V44H2.60692V0Z" fill="url(#paint6_linear_57057_23642)"/>
<path d="M3.04246 0H2.60547V44H3.04246V0Z" fill="url(#paint7_linear_57057_23642)"/>
<path d="M3.47996 0H3.04297V44H3.47996V0Z" fill="url(#paint8_linear_57057_23642)"/>
<path d="M3.93309 0H3.49609V44H3.93309V0Z" fill="url(#paint9_linear_57057_23642)"/>
<path d="M4.35106 0H3.91406V44H4.35106V0Z" fill="url(#paint10_linear_57057_23642)"/>
<path d="M4.80028 0H4.36328V44H4.80028V0Z" fill="url(#paint11_linear_57057_23642)"/>
<path d="M5.21238 0H4.77539V44H5.21238V0Z" fill="url(#paint12_linear_57057_23642)"/>
<path d="M5.66942 0H5.23242V44H5.66942V0Z" fill="url(#paint13_linear_57057_23642)"/>
<path d="M6.10692 0H5.66992V44H6.10692V0Z" fill="url(#paint14_linear_57057_23642)"/>
<path d="M6.52293 0H6.08594V44H6.52293V0Z" fill="url(#paint15_linear_57057_23642)"/>
<path d="M6.96824 0H6.53125V44H6.96824V0Z" fill="url(#paint16_linear_57057_23642)"/>
<path d="M7.39403 0H6.95703V44H7.39403V0Z" fill="url(#paint17_linear_57057_23642)"/>
<path d="M7.84324 0H7.40625V44H7.84324V0Z" fill="url(#paint18_linear_57057_23642)"/>
<path d="M8.28074 0H7.84375V44H8.28074V0Z" fill="url(#paint19_linear_57057_23642)"/>
<path d="M8.71238 0H8.27539V44H8.71238V0Z" fill="url(#paint20_linear_57057_23642)"/>
<path d="M9.14207 0H8.70508V44H9.14207V0Z" fill="url(#paint21_linear_57057_23642)"/>
<path d="M9.58348 0H9.14648V44H9.58348V0Z" fill="url(#paint22_linear_57057_23642)"/>
<path d="M10.0288 0H9.5918V44H10.0288V0Z" fill="url(#paint23_linear_57057_23642)"/>
<path d="M10.4448 0H10.0078V44H10.4448V0Z" fill="url(#paint24_linear_57057_23642)"/>
<path d="M10.8823 0H10.4453V44H10.8823V0Z" fill="url(#paint25_linear_57057_23642)"/>
<path d="M11.3276 0H10.8906V44H11.3276V0Z" fill="url(#paint26_linear_57057_23642)"/>
<path d="M11.7514 0H11.3145V44H11.7514V0Z" fill="url(#paint27_linear_57057_23642)"/>
<path d="M12.1968 0H11.7598V44H12.1968V0Z" fill="url(#paint28_linear_57057_23642)"/>
<path d="M12.6225 0H12.1855V44H12.6225V0Z" fill="url(#paint29_linear_57057_23642)"/>
<path d="M13.0718 0H12.6348V44H13.0718V0Z" fill="url(#paint30_linear_57057_23642)"/>
<path d="M13.5093 0H13.0723V44H13.5093V0Z" fill="url(#paint31_linear_57057_23642)"/>
<path d="M13.9409 0H13.5039V44H13.9409V0Z" fill="url(#paint32_linear_57057_23642)"/>
<path d="M14.3784 0H13.9414V44H14.3784V0Z" fill="url(#paint33_linear_57057_23642)"/>
<path d="M14.8159 0H14.3789V44H14.8159V0Z" fill="url(#paint34_linear_57057_23642)"/>
<path d="M15.2456 0H14.8086V44H15.2456V0Z" fill="url(#paint35_linear_57057_23642)"/>
<path d="M15.685 0V44H15.248V5.61786V0H15.685Z" fill="url(#paint36_linear_57057_23642)"/>
<path d="M16.1186 0H15.6816V44H16.1186V0Z" fill="url(#paint37_linear_57057_23642)"/>
<path d="M16.5718 0H16.1348V44H16.5718V0Z" fill="url(#paint38_linear_57057_23642)"/>
<path d="M16.9897 0H16.5527V44H16.9897V0Z" fill="url(#paint39_linear_57057_23642)"/>
<path d="M17.4253 0H16.9883V44H17.4253V0Z" fill="url(#paint40_linear_57057_23642)"/>
<path d="M17.8628 0H17.4258V44H17.8628V0Z" fill="url(#paint41_linear_57057_23642)"/>
<path d="M18.2886 0H17.8516V44H18.2886V0Z" fill="url(#paint42_linear_57057_23642)"/>
<path d="M18.7456 0H18.3086V44H18.7456V0Z" fill="url(#paint43_linear_57057_23642)"/>
<path d="M19.1616 0H18.7246V44H19.1616V0Z" fill="url(#paint44_linear_57057_23642)"/>
<path d="M19.6069 0H19.1699V44H19.6069V0Z" fill="url(#paint45_linear_57057_23642)"/>
<path d="M20.0327 0H19.5957V44H20.0327V0Z" fill="url(#paint46_linear_57057_23642)"/>
<path d="M20.478 0H20.041V44H20.478V0Z" fill="url(#paint47_linear_57057_23642)"/>
<path d="M20.9175 0H20.4805V44H20.9175V0Z" fill="url(#paint48_linear_57057_23642)"/>
<path d="M21.3432 0H20.9062V44H21.3432V0Z" fill="url(#paint49_linear_57057_23642)"/>
<path d="M21.7886 0H21.3516V44H21.7886V0Z" fill="url(#paint50_linear_57057_23642)"/>
<path d="M22.2261 0H21.7891V44H22.2261V0Z" fill="url(#paint51_linear_57057_23642)"/>
<path d="M22.6499 0H22.2129V44H22.6499V0Z" fill="url(#paint52_linear_57057_23642)"/>
<path d="M23.0874 0H22.6504V44H23.0874V0Z" fill="url(#paint53_linear_57057_23642)"/>
<path d="M23.5366 0H23.0996V44H23.5366V0Z" fill="url(#paint54_linear_57057_23642)"/>
<path d="M23.9624 0H23.5254V44H23.9624V0Z" fill="url(#paint55_linear_57057_23642)"/>
<path d="M24.394 0H23.957V44H24.394V0Z" fill="url(#paint56_linear_57057_23642)"/>
<path d="M24.8237 0H24.3867V44H24.8237V0Z" fill="url(#paint57_linear_57057_23642)"/>
<path d="M25.269 0H24.832V44H25.269V0Z" fill="url(#paint58_linear_57057_23642)"/>
<path d="M25.7026 0H25.2656V44H25.7026V0Z" fill="url(#paint59_linear_57057_23642)"/>
<path d="M26.1499 0H25.7129V44H26.1499V0Z" fill="url(#paint60_linear_57057_23642)"/>
<path d="M26.5639 0H26.127V44H26.5639V0Z" fill="url(#paint61_linear_57057_23642)"/>
<path d="M27.0132 0H26.5762V44H27.0132V0Z" fill="url(#paint62_linear_57057_23642)"/>
<path d="M27.4507 0H27.0137V44H27.4507V0Z" fill="url(#paint63_linear_57057_23642)"/>
<path d="M27.8979 0H27.4609V44H27.8979V0Z" fill="url(#paint64_linear_57057_23642)"/>
<path d="M28.3198 0H27.8828V44H28.3198V0Z" fill="url(#paint65_linear_57057_23642)"/>
<path d="M28.7573 0H28.3203V44H28.7573V0Z" fill="url(#paint66_linear_57057_23642)"/>
<path d="M29.187 0H28.75V44H29.187V0Z" fill="url(#paint67_linear_57057_23642)"/>
<path d="M29.6186 0H29.1816V44H29.6186V0Z" fill="url(#paint68_linear_57057_23642)"/>
<path d="M30.0639 0H29.627V44H30.0639V0Z" fill="url(#paint69_linear_57057_23642)"/>
<path d="M30.4936 0H30.0566V44H30.4936V0Z" fill="url(#paint70_linear_57057_23642)"/>
<path d="M30.9272 0H30.4902V44H30.9272V0Z" fill="url(#paint71_linear_57057_23642)"/>
<path d="M31.3628 0H30.9258V44H31.3628V0Z" fill="url(#paint72_linear_57057_23642)"/>
<path d="M31.812 0H31.375V44H31.812V0Z" fill="url(#paint73_linear_57057_23642)"/>
<path d="M32.2378 0H31.8008V44H32.2378V0Z" fill="url(#paint74_linear_57057_23642)"/>
<path d="M32.6753 0H32.2383V44H32.6753V0Z" fill="url(#paint75_linear_57057_23642)"/>
<path d="M33.0991 0H32.6621V44H33.0991V0Z" fill="url(#paint76_linear_57057_23642)"/>
<path d="M33.5444 0H33.1074V44H33.5444V0Z" fill="url(#paint77_linear_57057_23642)"/>
<path d="M33.978 0H33.541V44H33.978V0Z" fill="url(#paint78_linear_57057_23642)"/>
<path d="M34.4233 0H33.9863V44H34.4233V0Z" fill="url(#paint79_linear_57057_23642)"/>
<path d="M34.8432 0H34.4062V44H34.8432V0Z" fill="url(#paint80_linear_57057_23642)"/>
<path d="M35.2846 0H34.8477V44H35.2846V0Z" fill="url(#paint81_linear_57057_23642)"/>
<path d="M35.7221 0H35.2852V44H35.7221V0Z" fill="url(#paint82_linear_57057_23642)"/>
<path d="M36.1714 0H35.7344V44H36.1714V0Z" fill="url(#paint83_linear_57057_23642)"/>
<path d="M36.5952 0H36.1582V44H36.5952V0Z" fill="url(#paint84_linear_57057_23642)"/>
<path d="M37.0093 0H36.5723V44H37.0093V0Z" fill="url(#paint85_linear_57057_23642)"/>
<path d="M37.4585 0H37.0215V44H37.4585V0Z" fill="url(#paint86_linear_57057_23642)"/>
<path d="M37.896 0H37.459V44H37.896V0Z" fill="url(#paint87_linear_57057_23642)"/>
<path d="M38.3393 0H37.9023V44H38.3393V0Z" fill="url(#paint88_linear_57057_23642)"/>
<path d="M38.7651 0H38.3281V44H38.7651V0Z" fill="url(#paint89_linear_57057_23642)"/>
<path d="M39.1987 0H38.7617V44H39.1987V0Z" fill="url(#paint90_linear_57057_23642)"/>
<path d="M39.6401 0H39.2031V44H39.6401V0Z" fill="url(#paint91_linear_57057_23642)"/>
<path d="M40.0757 0H39.6387V44H40.0757V0Z" fill="url(#paint92_linear_57057_23642)"/>
<path d="M40.5093 0H40.0723V44H40.5093V0Z" fill="url(#paint93_linear_57057_23642)"/>
<path d="M40.9546 0H40.5176V44H40.9546V0Z" fill="url(#paint94_linear_57057_23642)"/>
<path d="M41.3804 0H40.9434V44H41.3804V0Z" fill="url(#paint95_linear_57057_23642)"/>
<path d="M41.8276 0H41.3906V44H41.8276V0Z" fill="url(#paint96_linear_57057_23642)"/>
<path d="M42.2573 0H41.8203V44H42.2573V0Z" fill="url(#paint97_linear_57057_23642)"/>
<path d="M42.7026 0H42.2656V44H42.7026V0Z" fill="url(#paint98_linear_57057_23642)"/>
<path d="M43.1284 0H42.6914V44H43.1284V0Z" fill="url(#paint99_linear_57057_23642)"/>
<path d="M43.56 0H43.123V44H43.56V0Z" fill="url(#paint100_linear_57057_23642)"/>
<path d="M44.0014 0H43.5645V44H44.0014V0Z" fill="url(#paint101_linear_57057_23642)"/>
</g>
<path d="M33.8116 25.9301C32.2963 31.1748 27.5119 35.0346 21.8261 35.0346C16.1403 35.0346 11.0927 30.9734 9.71875 25.5127L5.87949 28.5573L5.69922 28.7194C8.21325 35.2359 14.4837 39.8716 21.8261 39.8716C29.1684 39.8716 35.2148 35.4078 37.8165 29.0779L33.8116 25.935V25.9301Z" fill="white"/>
<path d="M9.44498 21.6256H39.4544C39.4544 11.9957 31.6169 4.1582 21.9869 4.1582C12.357 4.1582 4.51953 11.9957 4.51953 21.6256H9.44007H9.44498ZM21.9919 9.07874C27.1677 9.07874 31.6218 12.2314 33.5369 16.7149H10.4419C12.357 12.2314 16.8111 9.07874 21.9869 9.07874H21.9919Z" fill="#19417F"/>
<path d="M188.203 23.7623V4H195.017V23.87C195.017 26.421 195.903 28.5929 197.675 30.3903C199.446 32.1878 201.587 33.0865 204.101 33.0865C206.615 33.0865 208.756 32.1878 210.528 30.3903C212.299 28.5929 213.185 26.421 213.185 23.87V4H219.999V23.7623C219.999 27.9048 218.49 31.9303 215.676 34.9307C212.507 38.3102 208.65 40 204.101 40C199.552 40 195.691 38.3102 192.526 34.9307C189.712 31.9303 188.203 27.9048 188.203 23.7623Z" fill="#033884"/>
<path d="M145.949 4C140.972 4 136.735 5.72203 133.237 9.16147C129.72 12.6009 127.959 16.7448 127.959 21.5932C127.959 26.4416 129.72 30.6131 133.237 34.0526C136.735 37.4736 140.972 39.1818 145.949 39.1818C150.925 39.1818 155.144 37.4736 158.661 34.0526C162.178 30.6131 163.939 26.46 163.939 21.5932C163.939 16.7264 162.182 12.6009 158.661 9.16147C155.144 5.72203 150.906 4 145.949 4ZM153.816 29.3147C151.636 31.4281 149.014 32.4825 145.949 32.4825C142.884 32.4825 140.243 31.4281 138.081 29.3147C135.902 27.1829 134.809 24.6091 134.809 21.5886C134.809 18.5682 135.897 16.0266 138.081 13.8947C140.243 11.7813 142.865 10.727 145.949 10.727C149.033 10.727 151.636 11.7813 153.816 13.8947C155.996 16.0266 157.088 18.5912 157.088 21.5886C157.088 24.586 155.996 27.1829 153.816 29.3147Z" fill="#73CAEB"/>
<path d="M110.301 10.5957L127.123 10.5864V4L109.646 4.00933C106.427 4.00933 103.515 5.31542 101.423 7.42381L101.39 7.39582L85.1146 26.6606C85.1146 26.6606 85.1052 26.6419 85.1005 26.6326C85.0675 26.6886 85.0298 26.7446 84.9968 26.8005L82.3958 29.8792C81.1282 30.98 79.6769 31.8336 78.0277 32.426C75.2429 33.4336 72.491 33.359 69.7722 32.2068L88.3047 10.2599L85.5858 8.10018C83.1026 6.0944 80.2848 4.8303 77.1371 4.31253C73.9895 3.79476 70.9266 4.06997 67.9486 5.15215C63.2366 6.8594 59.8392 9.95669 57.747 14.4487C55.636 18.9454 55.4381 23.5213 57.1533 28.1626C58.8779 32.8225 62.0114 36.1997 66.5539 38.2894C71.0727 40.3652 75.6858 40.5518 80.3979 38.8492C83.1073 37.8696 85.4869 36.3956 87.5319 34.4411L87.546 34.4551L87.645 34.3339C87.9513 34.0353 88.2528 33.7275 88.545 33.4056C89.2 32.6873 89.789 31.9409 90.3167 31.1666L98.1057 21.9494L98.1152 39.936H104.773V27.8501L124.856 27.8407V21.2497L104.764 21.259V16.0953C104.764 13.0633 107.242 10.6051 110.305 10.6004L110.301 10.5957ZM64.5701 27.7335C64.1931 27.1271 63.8774 26.488 63.6277 25.8116C62.5675 22.9429 62.69 20.1115 63.9999 17.3221C65.2957 14.5606 67.402 12.6482 70.3235 11.594C72.1942 10.9176 74.0884 10.731 76.0109 11.0435C76.7413 11.1695 77.467 11.3701 78.1832 11.6313L64.5748 27.7335H64.5701Z" fill="url(#paint102_linear_57057_23642)"/>
<path d="M166.449 39.1818V21.116C166.449 16.4077 168.133 12.3342 171.445 9.00966C174.685 5.75818 178.629 4.07307 183.184 4V10.8272C180.495 10.9003 178.165 11.9141 176.25 13.8321C174.257 15.8323 173.251 18.2801 173.251 21.116V39.1818H166.449Z" fill="#73CAEB"/>
<defs>
<linearGradient id="paint0_linear_57057_23642" x1="22" y1="0" x2="22" y2="44" gradientUnits="userSpaceOnUse">
<stop stop-color="#73CAEB"/>
<stop offset="0.16" stop-color="#69BCE0"/>
<stop offset="0.44" stop-color="#5197C3"/>
<stop offset="0.83" stop-color="#2B5D95"/>
<stop offset="1" stop-color="#19417F"/>
</linearGradient>
<linearGradient id="paint1_linear_57057_23642" x1="0.216042" y1="0" x2="0.216042" y2="44" gradientUnits="userSpaceOnUse">
<stop stop-color="#73CAEB"/>
<stop offset="0.16" stop-color="#69BCE0"/>
<stop offset="0.44" stop-color="#5197C3"/>
<stop offset="0.83" stop-color="#2B5D95"/>
<stop offset="1" stop-color="#19417F"/>
</linearGradient>
<linearGradient id="paint2_linear_57057_23642" x1="0.653542" y1="0" x2="0.653542" y2="44" gradientUnits="userSpaceOnUse">
<stop stop-color="#73CAEB"/>
<stop offset="0.16" stop-color="#69BCE0"/>
<stop offset="0.44" stop-color="#5197C3"/>
<stop offset="0.83" stop-color="#2B5D95"/>
<stop offset="1" stop-color="#19417F"/>
</linearGradient>
<linearGradient id="paint3_linear_57057_23642" x1="1.08228" y1="0" x2="1.08228" y2="44" gradientUnits="userSpaceOnUse">
<stop stop-color="#73CAEB"/>
<stop offset="0.16" stop-color="#69BCE0"/>
<stop offset="0.44" stop-color="#5197C3"/>
<stop offset="0.83" stop-color="#2B5D95"/>
<stop offset="1" stop-color="#19417F"/>
</linearGradient>
<linearGradient id="paint4_linear_57057_23642" x1="1.52268" y1="0" x2="1.52268" y2="44" gradientUnits="userSpaceOnUse">
<stop stop-color="#73CAEB"/>
<stop offset="0.16" stop-color="#69BCE0"/>
<stop offset="0.44" stop-color="#5197C3"/>
<stop offset="0.83" stop-color="#2B5D95"/>
<stop offset="1" stop-color="#19417F"/>
</linearGradient>
<linearGradient id="paint5_linear_57057_23642" x1="1.95628" y1="0" x2="1.95628" y2="44" gradientUnits="userSpaceOnUse">
<stop stop-color="#73CAEB"/>
<stop offset="0.16" stop-color="#69BCE0"/>
<stop offset="0.44" stop-color="#5197C3"/>
<stop offset="0.83" stop-color="#2B5D95"/>
<stop offset="1" stop-color="#19417F"/>
</linearGradient>
<linearGradient id="paint6_linear_57057_23642" x1="2.38596" y1="0" x2="2.38596" y2="44" gradientUnits="userSpaceOnUse">
<stop stop-color="#73CAEB"/>
<stop offset="0.16" stop-color="#69BCE0"/>
<stop offset="0.44" stop-color="#5197C3"/>
<stop offset="0.83" stop-color="#2B5D95"/>
<stop offset="1" stop-color="#19417F"/>
</linearGradient>
<linearGradient id="paint7_linear_57057_23642" x1="2.82642" y1="0" x2="2.82642" y2="44" gradientUnits="userSpaceOnUse">
<stop stop-color="#73CAEB"/>
<stop offset="0.16" stop-color="#69BCE0"/>
<stop offset="0.44" stop-color="#5197C3"/>
<stop offset="0.83" stop-color="#2B5D95"/>
<stop offset="1" stop-color="#19417F"/>
</linearGradient>
<linearGradient id="paint8_linear_57057_23642" x1="3.25901" y1="0" x2="3.25901" y2="44" gradientUnits="userSpaceOnUse">
<stop stop-color="#73CAEB"/>
<stop offset="0.16" stop-color="#69BCE0"/>
<stop offset="0.44" stop-color="#5197C3"/>
<stop offset="0.83" stop-color="#2B5D95"/>
<stop offset="1" stop-color="#19417F"/>
</linearGradient>
<linearGradient id="paint9_linear_57057_23642" x1="3.71214" y1="0" x2="3.71214" y2="44" gradientUnits="userSpaceOnUse">
<stop stop-color="#73CAEB"/>
<stop offset="0.16" stop-color="#69BCE0"/>
<stop offset="0.44" stop-color="#5197C3"/>
<stop offset="0.83" stop-color="#2B5D95"/>
<stop offset="1" stop-color="#19417F"/>
</linearGradient>
<linearGradient id="paint10_linear_57057_23642" x1="4.13502" y1="0" x2="4.13502" y2="44" gradientUnits="userSpaceOnUse">
<stop stop-color="#73CAEB"/>
<stop offset="0.16" stop-color="#69BCE0"/>
<stop offset="0.44" stop-color="#5197C3"/>
<stop offset="0.83" stop-color="#2B5D95"/>
<stop offset="1" stop-color="#19417F"/>
</linearGradient>
<linearGradient id="paint11_linear_57057_23642" x1="4.57932" y1="0" x2="4.57932" y2="44" gradientUnits="userSpaceOnUse">
<stop stop-color="#73CAEB"/>
<stop offset="0.16" stop-color="#69BCE0"/>
<stop offset="0.44" stop-color="#5197C3"/>
<stop offset="0.83" stop-color="#2B5D95"/>
<stop offset="1" stop-color="#19417F"/>
</linearGradient>
<linearGradient id="paint12_linear_57057_23642" x1="4.99143" y1="0" x2="4.99143" y2="44" gradientUnits="userSpaceOnUse">
<stop stop-color="#73CAEB"/>
<stop offset="0.16" stop-color="#69BCE0"/>
<stop offset="0.44" stop-color="#5197C3"/>
<stop offset="0.83" stop-color="#2B5D95"/>
<stop offset="1" stop-color="#19417F"/>
</linearGradient>
<linearGradient id="paint13_linear_57057_23642" x1="5.44846" y1="0" x2="5.44846" y2="44" gradientUnits="userSpaceOnUse">
<stop stop-color="#73CAEB"/>
<stop offset="0.16" stop-color="#69BCE0"/>
<stop offset="0.44" stop-color="#5197C3"/>
<stop offset="0.83" stop-color="#2B5D95"/>
<stop offset="1" stop-color="#19417F"/>
</linearGradient>
<linearGradient id="paint14_linear_57057_23642" x1="5.89088" y1="0" x2="5.89088" y2="44" gradientUnits="userSpaceOnUse">
<stop stop-color="#73CAEB"/>
<stop offset="0.16" stop-color="#69BCE0"/>
<stop offset="0.44" stop-color="#5197C3"/>
<stop offset="0.83" stop-color="#2B5D95"/>
<stop offset="1" stop-color="#19417F"/>
</linearGradient>
<linearGradient id="paint15_linear_57057_23642" x1="6.30198" y1="0" x2="6.30198" y2="44" gradientUnits="userSpaceOnUse">
<stop stop-color="#73CAEB"/>
<stop offset="0.16" stop-color="#69BCE0"/>
<stop offset="0.44" stop-color="#5197C3"/>
<stop offset="0.83" stop-color="#2B5D95"/>
<stop offset="1" stop-color="#19417F"/>
</linearGradient>
<linearGradient id="paint16_linear_57057_23642" x1="6.74729" y1="0" x2="6.74729" y2="44" gradientUnits="userSpaceOnUse">
<stop stop-color="#73CAEB"/>
<stop offset="0.16" stop-color="#69BCE0"/>
<stop offset="0.44" stop-color="#5197C3"/>
<stop offset="0.83" stop-color="#2B5D95"/>
<stop offset="1" stop-color="#19417F"/>
</linearGradient>
<linearGradient id="paint17_linear_57057_23642" x1="7.17798" y1="0" x2="7.17798" y2="44" gradientUnits="userSpaceOnUse">
<stop stop-color="#73CAEB"/>
<stop offset="0.16" stop-color="#69BCE0"/>
<stop offset="0.44" stop-color="#5197C3"/>
<stop offset="0.83" stop-color="#2B5D95"/>
<stop offset="1" stop-color="#19417F"/>
</linearGradient>
<linearGradient id="paint18_linear_57057_23642" x1="7.62229" y1="0" x2="7.62229" y2="44" gradientUnits="userSpaceOnUse">
<stop stop-color="#73CAEB"/>
<stop offset="0.16" stop-color="#69BCE0"/>
<stop offset="0.44" stop-color="#5197C3"/>
<stop offset="0.83" stop-color="#2B5D95"/>
<stop offset="1" stop-color="#19417F"/>
</linearGradient>
<linearGradient id="paint19_linear_57057_23642" x1="8.05979" y1="0" x2="8.05979" y2="44" gradientUnits="userSpaceOnUse">
<stop stop-color="#73CAEB"/>
<stop offset="0.16" stop-color="#69BCE0"/>
<stop offset="0.44" stop-color="#5197C3"/>
<stop offset="0.83" stop-color="#2B5D95"/>
<stop offset="1" stop-color="#19417F"/>
</linearGradient>
<linearGradient id="paint20_linear_57057_23642" x1="8.49143" y1="0" x2="8.49143" y2="44" gradientUnits="userSpaceOnUse">
<stop stop-color="#73CAEB"/>
<stop offset="0.16" stop-color="#69BCE0"/>
<stop offset="0.44" stop-color="#5197C3"/>
<stop offset="0.83" stop-color="#2B5D95"/>
<stop offset="1" stop-color="#19417F"/>
</linearGradient>
<linearGradient id="paint21_linear_57057_23642" x1="8.92603" y1="0" x2="8.92603" y2="44" gradientUnits="userSpaceOnUse">
<stop stop-color="#73CAEB"/>
<stop offset="0.16" stop-color="#69BCE0"/>
<stop offset="0.44" stop-color="#5197C3"/>
<stop offset="0.83" stop-color="#2B5D95"/>
<stop offset="1" stop-color="#19417F"/>
</linearGradient>
<linearGradient id="paint22_linear_57057_23642" x1="9.36253" y1="0" x2="9.36253" y2="44" gradientUnits="userSpaceOnUse">
<stop stop-color="#73CAEB"/>
<stop offset="0.16" stop-color="#69BCE0"/>
<stop offset="0.44" stop-color="#5197C3"/>
<stop offset="0.83" stop-color="#2B5D95"/>
<stop offset="1" stop-color="#19417F"/>
</linearGradient>
<linearGradient id="paint23_linear_57057_23642" x1="9.80784" y1="0" x2="9.80784" y2="44" gradientUnits="userSpaceOnUse">
<stop stop-color="#73CAEB"/>
<stop offset="0.16" stop-color="#69BCE0"/>
<stop offset="0.44" stop-color="#5197C3"/>
<stop offset="0.83" stop-color="#2B5D95"/>
<stop offset="1" stop-color="#19417F"/>
</linearGradient>
<linearGradient id="paint24_linear_57057_23642" x1="10.2288" y1="0" x2="10.2288" y2="44" gradientUnits="userSpaceOnUse">
<stop stop-color="#73CAEB"/>
<stop offset="0.16" stop-color="#69BCE0"/>
<stop offset="0.44" stop-color="#5197C3"/>
<stop offset="0.83" stop-color="#2B5D95"/>
<stop offset="1" stop-color="#19417F"/>
</linearGradient>
<linearGradient id="paint25_linear_57057_23642" x1="10.6614" y1="0" x2="10.6614" y2="44" gradientUnits="userSpaceOnUse">
<stop stop-color="#73CAEB"/>
<stop offset="0.16" stop-color="#69BCE0"/>
<stop offset="0.44" stop-color="#5197C3"/>
<stop offset="0.83" stop-color="#2B5D95"/>
<stop offset="1" stop-color="#19417F"/>
</linearGradient>
<linearGradient id="paint26_linear_57057_23642" x1="11.1067" y1="0" x2="11.1067" y2="44" gradientUnits="userSpaceOnUse">
<stop stop-color="#73CAEB"/>
<stop offset="0.16" stop-color="#69BCE0"/>
<stop offset="0.44" stop-color="#5197C3"/>
<stop offset="0.83" stop-color="#2B5D95"/>
<stop offset="1" stop-color="#19417F"/>
</linearGradient>
<linearGradient id="paint27_linear_57057_23642" x1="11.5305" y1="0" x2="11.5305" y2="44" gradientUnits="userSpaceOnUse">
<stop stop-color="#73CAEB"/>
<stop offset="0.16" stop-color="#69BCE0"/>
<stop offset="0.44" stop-color="#5197C3"/>
<stop offset="0.83" stop-color="#2B5D95"/>
<stop offset="1" stop-color="#19417F"/>
</linearGradient>
<linearGradient id="paint28_linear_57057_23642" x1="11.9807" y1="0" x2="11.9807" y2="44" gradientUnits="userSpaceOnUse">
<stop stop-color="#73CAEB"/>
<stop offset="0.16" stop-color="#69BCE0"/>
<stop offset="0.44" stop-color="#5197C3"/>
<stop offset="0.83" stop-color="#2B5D95"/>
<stop offset="1" stop-color="#19417F"/>
</linearGradient>
<linearGradient id="paint29_linear_57057_23642" x1="12.4016" y1="0" x2="12.4016" y2="44" gradientUnits="userSpaceOnUse">
<stop stop-color="#73CAEB"/>
<stop offset="0.16" stop-color="#69BCE0"/>
<stop offset="0.44" stop-color="#5197C3"/>
<stop offset="0.83" stop-color="#2B5D95"/>
<stop offset="1" stop-color="#19417F"/>
</linearGradient>
<linearGradient id="paint30_linear_57057_23642" x1="12.8508" y1="0" x2="12.8508" y2="44" gradientUnits="userSpaceOnUse">
<stop stop-color="#73CAEB"/>
<stop offset="0.16" stop-color="#69BCE0"/>
<stop offset="0.44" stop-color="#5197C3"/>
<stop offset="0.83" stop-color="#2B5D95"/>
<stop offset="1" stop-color="#19417F"/>
</linearGradient>
<linearGradient id="paint31_linear_57057_23642" x1="13.2932" y1="0" x2="13.2932" y2="44" gradientUnits="userSpaceOnUse">
<stop stop-color="#73CAEB"/>
<stop offset="0.16" stop-color="#69BCE0"/>
<stop offset="0.44" stop-color="#5197C3"/>
<stop offset="0.83" stop-color="#2B5D95"/>
<stop offset="1" stop-color="#19417F"/>
</linearGradient>
<linearGradient id="paint32_linear_57057_23642" x1="13.7199" y1="0" x2="13.7199" y2="44" gradientUnits="userSpaceOnUse">
<stop stop-color="#73CAEB"/>
<stop offset="0.16" stop-color="#69BCE0"/>
<stop offset="0.44" stop-color="#5197C3"/>
<stop offset="0.83" stop-color="#2B5D95"/>
<stop offset="1" stop-color="#19417F"/>
</linearGradient>
<linearGradient id="paint33_linear_57057_23642" x1="14.1574" y1="0" x2="14.1574" y2="44" gradientUnits="userSpaceOnUse">
<stop stop-color="#73CAEB"/>
<stop offset="0.16" stop-color="#69BCE0"/>
<stop offset="0.44" stop-color="#5197C3"/>
<stop offset="0.83" stop-color="#2B5D95"/>
<stop offset="1" stop-color="#19417F"/>
</linearGradient>
<linearGradient id="paint34_linear_57057_23642" x1="14.5949" y1="0" x2="14.5949" y2="44" gradientUnits="userSpaceOnUse">
<stop stop-color="#73CAEB"/>
<stop offset="0.16" stop-color="#69BCE0"/>
<stop offset="0.44" stop-color="#5197C3"/>
<stop offset="0.83" stop-color="#2B5D95"/>
<stop offset="1" stop-color="#19417F"/>
</linearGradient>
<linearGradient id="paint35_linear_57057_23642" x1="15.0295" y1="0" x2="15.0295" y2="44" gradientUnits="userSpaceOnUse">
<stop stop-color="#73CAEB"/>
<stop offset="0.16" stop-color="#69BCE0"/>
<stop offset="0.44" stop-color="#5197C3"/>
<stop offset="0.83" stop-color="#2B5D95"/>
<stop offset="1" stop-color="#19417F"/>
</linearGradient>
<linearGradient id="paint36_linear_57057_23642" x1="15.4641" y1="0" x2="15.4641" y2="44" gradientUnits="userSpaceOnUse">
<stop stop-color="#73CAEB"/>
<stop offset="0.16" stop-color="#69BCE0"/>
<stop offset="0.44" stop-color="#5197C3"/>
<stop offset="0.83" stop-color="#2B5D95"/>
<stop offset="1" stop-color="#19417F"/>
</linearGradient>
<linearGradient id="paint37_linear_57057_23642" x1="15.8977" y1="0" x2="15.8977" y2="44" gradientUnits="userSpaceOnUse">
<stop stop-color="#73CAEB"/>
<stop offset="0.16" stop-color="#69BCE0"/>
<stop offset="0.44" stop-color="#5197C3"/>
<stop offset="0.83" stop-color="#2B5D95"/>
<stop offset="1" stop-color="#19417F"/>
</linearGradient>
<linearGradient id="paint38_linear_57057_23642" x1="16.3508" y1="0" x2="16.3508" y2="44" gradientUnits="userSpaceOnUse">
<stop stop-color="#73CAEB"/>
<stop offset="0.16" stop-color="#69BCE0"/>
<stop offset="0.44" stop-color="#5197C3"/>
<stop offset="0.83" stop-color="#2B5D95"/>
<stop offset="1" stop-color="#19417F"/>
</linearGradient>
<linearGradient id="paint39_linear_57057_23642" x1="16.7737" y1="0" x2="16.7737" y2="44" gradientUnits="userSpaceOnUse">
<stop stop-color="#73CAEB"/>
<stop offset="0.16" stop-color="#69BCE0"/>
<stop offset="0.44" stop-color="#5197C3"/>
<stop offset="0.83" stop-color="#2B5D95"/>
<stop offset="1" stop-color="#19417F"/>
</linearGradient>
<linearGradient id="paint40_linear_57057_23642" x1="17.2043" y1="0" x2="17.2043" y2="44" gradientUnits="userSpaceOnUse">
<stop stop-color="#73CAEB"/>
<stop offset="0.16" stop-color="#69BCE0"/>
<stop offset="0.44" stop-color="#5197C3"/>
<stop offset="0.83" stop-color="#2B5D95"/>
<stop offset="1" stop-color="#19417F"/>
</linearGradient>
<linearGradient id="paint41_linear_57057_23642" x1="17.6418" y1="0" x2="17.6418" y2="44" gradientUnits="userSpaceOnUse">
<stop stop-color="#73CAEB"/>
<stop offset="0.16" stop-color="#69BCE0"/>
<stop offset="0.44" stop-color="#5197C3"/>
<stop offset="0.83" stop-color="#2B5D95"/>
<stop offset="1" stop-color="#19417F"/>
</linearGradient>
<linearGradient id="paint42_linear_57057_23642" x1="18.0725" y1="0" x2="18.0725" y2="44" gradientUnits="userSpaceOnUse">
<stop stop-color="#73CAEB"/>
<stop offset="0.16" stop-color="#69BCE0"/>
<stop offset="0.44" stop-color="#5197C3"/>
<stop offset="0.83" stop-color="#2B5D95"/>
<stop offset="1" stop-color="#19417F"/>
</linearGradient>
<linearGradient id="paint43_linear_57057_23642" x1="18.5246" y1="0" x2="18.5246" y2="44" gradientUnits="userSpaceOnUse">
<stop stop-color="#73CAEB"/>
<stop offset="0.16" stop-color="#69BCE0"/>
<stop offset="0.44" stop-color="#5197C3"/>
<stop offset="0.83" stop-color="#2B5D95"/>
<stop offset="1" stop-color="#19417F"/>
</linearGradient>
<linearGradient id="paint44_linear_57057_23642" x1="18.9407" y1="0" x2="18.9407" y2="44" gradientUnits="userSpaceOnUse">
<stop stop-color="#73CAEB"/>
<stop offset="0.16" stop-color="#69BCE0"/>
<stop offset="0.44" stop-color="#5197C3"/>
<stop offset="0.83" stop-color="#2B5D95"/>
<stop offset="1" stop-color="#19417F"/>
</linearGradient>
<linearGradient id="paint45_linear_57057_23642" x1="19.386" y1="0" x2="19.386" y2="44" gradientUnits="userSpaceOnUse">
<stop stop-color="#73CAEB"/>
<stop offset="0.16" stop-color="#69BCE0"/>
<stop offset="0.44" stop-color="#5197C3"/>
<stop offset="0.83" stop-color="#2B5D95"/>
<stop offset="1" stop-color="#19417F"/>
</linearGradient>
<linearGradient id="paint46_linear_57057_23642" x1="19.8167" y1="0" x2="19.8167" y2="44" gradientUnits="userSpaceOnUse">
<stop stop-color="#73CAEB"/>
<stop offset="0.16" stop-color="#69BCE0"/>
<stop offset="0.44" stop-color="#5197C3"/>
<stop offset="0.83" stop-color="#2B5D95"/>
<stop offset="1" stop-color="#19417F"/>
</linearGradient>
<linearGradient id="paint47_linear_57057_23642" x1="20.2571" y1="0" x2="20.2571" y2="44" gradientUnits="userSpaceOnUse">
<stop stop-color="#73CAEB"/>
<stop offset="0.16" stop-color="#69BCE0"/>
<stop offset="0.44" stop-color="#5197C3"/>
<stop offset="0.83" stop-color="#2B5D95"/>
<stop offset="1" stop-color="#19417F"/>
</linearGradient>
<linearGradient id="paint48_linear_57057_23642" x1="20.6965" y1="0" x2="20.6965" y2="44" gradientUnits="userSpaceOnUse">
<stop stop-color="#73CAEB"/>
<stop offset="0.16" stop-color="#69BCE0"/>
<stop offset="0.44" stop-color="#5197C3"/>
<stop offset="0.83" stop-color="#2B5D95"/>
<stop offset="1" stop-color="#19417F"/>
</linearGradient>
<linearGradient id="paint49_linear_57057_23642" x1="21.1272" y1="0" x2="21.1272" y2="44" gradientUnits="userSpaceOnUse">
<stop stop-color="#73CAEB"/>
<stop offset="0.16" stop-color="#69BCE0"/>
<stop offset="0.44" stop-color="#5197C3"/>
<stop offset="0.83" stop-color="#2B5D95"/>
<stop offset="1" stop-color="#19417F"/>
</linearGradient>
<linearGradient id="paint50_linear_57057_23642" x1="21.5676" y1="0" x2="21.5676" y2="44" gradientUnits="userSpaceOnUse">
<stop stop-color="#73CAEB"/>
<stop offset="0.16" stop-color="#69BCE0"/>
<stop offset="0.44" stop-color="#5197C3"/>
<stop offset="0.83" stop-color="#2B5D95"/>
<stop offset="1" stop-color="#19417F"/>
</linearGradient>
<linearGradient id="paint51_linear_57057_23642" x1="22.0051" y1="0" x2="22.0051" y2="44" gradientUnits="userSpaceOnUse">
<stop stop-color="#73CAEB"/>
<stop offset="0.16" stop-color="#69BCE0"/>
<stop offset="0.44" stop-color="#5197C3"/>
<stop offset="0.83" stop-color="#2B5D95"/>
<stop offset="1" stop-color="#19417F"/>
</linearGradient>
<linearGradient id="paint52_linear_57057_23642" x1="22.4289" y1="0" x2="22.4289" y2="44" gradientUnits="userSpaceOnUse">
<stop stop-color="#73CAEB"/>
<stop offset="0.16" stop-color="#69BCE0"/>
<stop offset="0.44" stop-color="#5197C3"/>
<stop offset="0.83" stop-color="#2B5D95"/>
<stop offset="1" stop-color="#19417F"/>
</linearGradient>
<linearGradient id="paint53_linear_57057_23642" x1="22.8713" y1="0" x2="22.8713" y2="44" gradientUnits="userSpaceOnUse">
<stop stop-color="#73CAEB"/>
<stop offset="0.16" stop-color="#69BCE0"/>
<stop offset="0.44" stop-color="#5197C3"/>
<stop offset="0.83" stop-color="#2B5D95"/>
<stop offset="1" stop-color="#19417F"/>
</linearGradient>
<linearGradient id="paint54_linear_57057_23642" x1="23.3157" y1="0" x2="23.3157" y2="44" gradientUnits="userSpaceOnUse">
<stop stop-color="#73CAEB"/>
<stop offset="0.16" stop-color="#69BCE0"/>
<stop offset="0.44" stop-color="#5197C3"/>
<stop offset="0.83" stop-color="#2B5D95"/>
<stop offset="1" stop-color="#19417F"/>
</linearGradient>
<linearGradient id="paint55_linear_57057_23642" x1="23.7414" y1="0" x2="23.7414" y2="44" gradientUnits="userSpaceOnUse">
<stop stop-color="#73CAEB"/>
<stop offset="0.16" stop-color="#69BCE0"/>
<stop offset="0.44" stop-color="#5197C3"/>
<stop offset="0.83" stop-color="#2B5D95"/>
<stop offset="1" stop-color="#19417F"/>
</linearGradient>
<linearGradient id="paint56_linear_57057_23642" x1="24.178" y1="0" x2="24.178" y2="44" gradientUnits="userSpaceOnUse">
<stop stop-color="#73CAEB"/>
<stop offset="0.16" stop-color="#69BCE0"/>
<stop offset="0.44" stop-color="#5197C3"/>
<stop offset="0.83" stop-color="#2B5D95"/>
<stop offset="1" stop-color="#19417F"/>
</linearGradient>
<linearGradient id="paint57_linear_57057_23642" x1="24.6028" y1="0" x2="24.6028" y2="44" gradientUnits="userSpaceOnUse">
<stop stop-color="#73CAEB"/>
<stop offset="0.16" stop-color="#69BCE0"/>
<stop offset="0.44" stop-color="#5197C3"/>
<stop offset="0.83" stop-color="#2B5D95"/>
<stop offset="1" stop-color="#19417F"/>
</linearGradient>
<linearGradient id="paint58_linear_57057_23642" x1="25.0481" y1="0" x2="25.0481" y2="44" gradientUnits="userSpaceOnUse">
<stop stop-color="#73CAEB"/>
<stop offset="0.16" stop-color="#69BCE0"/>
<stop offset="0.44" stop-color="#5197C3"/>
<stop offset="0.83" stop-color="#2B5D95"/>
<stop offset="1" stop-color="#19417F"/>
</linearGradient>
<linearGradient id="paint59_linear_57057_23642" x1="25.4817" y1="0" x2="25.4817" y2="44" gradientUnits="userSpaceOnUse">
<stop stop-color="#73CAEB"/>
<stop offset="0.16" stop-color="#69BCE0"/>
<stop offset="0.44" stop-color="#5197C3"/>
<stop offset="0.83" stop-color="#2B5D95"/>
<stop offset="1" stop-color="#19417F"/>
</linearGradient>
<linearGradient id="paint60_linear_57057_23642" x1="25.9338" y1="0" x2="25.9338" y2="44" gradientUnits="userSpaceOnUse">
<stop stop-color="#73CAEB"/>
<stop offset="0.16" stop-color="#69BCE0"/>
<stop offset="0.44" stop-color="#5197C3"/>
<stop offset="0.83" stop-color="#2B5D95"/>
<stop offset="1" stop-color="#19417F"/>
</linearGradient>
<linearGradient id="paint61_linear_57057_23642" x1="26.343" y1="0" x2="26.343" y2="44" gradientUnits="userSpaceOnUse">
<stop stop-color="#73CAEB"/>
<stop offset="0.16" stop-color="#69BCE0"/>
<stop offset="0.44" stop-color="#5197C3"/>
<stop offset="0.83" stop-color="#2B5D95"/>
<stop offset="1" stop-color="#19417F"/>
</linearGradient>
<linearGradient id="paint62_linear_57057_23642" x1="26.7922" y1="0" x2="26.7922" y2="44" gradientUnits="userSpaceOnUse">
<stop stop-color="#73CAEB"/>
<stop offset="0.16" stop-color="#69BCE0"/>
<stop offset="0.44" stop-color="#5197C3"/>
<stop offset="0.83" stop-color="#2B5D95"/>
<stop offset="1" stop-color="#19417F"/>
</linearGradient>
<linearGradient id="paint63_linear_57057_23642" x1="27.2346" y1="0" x2="27.2346" y2="44" gradientUnits="userSpaceOnUse">
<stop stop-color="#73CAEB"/>
<stop offset="0.16" stop-color="#69BCE0"/>
<stop offset="0.44" stop-color="#5197C3"/>
<stop offset="0.83" stop-color="#2B5D95"/>
<stop offset="1" stop-color="#19417F"/>
</linearGradient>
<linearGradient id="paint64_linear_57057_23642" x1="27.677" y1="0" x2="27.677" y2="44" gradientUnits="userSpaceOnUse">
<stop stop-color="#73CAEB"/>
<stop offset="0.16" stop-color="#69BCE0"/>
<stop offset="0.44" stop-color="#5197C3"/>
<stop offset="0.83" stop-color="#2B5D95"/>
<stop offset="1" stop-color="#19417F"/>
</linearGradient>
<linearGradient id="paint65_linear_57057_23642" x1="28.0989" y1="0" x2="28.0989" y2="44" gradientUnits="userSpaceOnUse">
<stop stop-color="#73CAEB"/>
<stop offset="0.16" stop-color="#69BCE0"/>
<stop offset="0.44" stop-color="#5197C3"/>
<stop offset="0.83" stop-color="#2B5D95"/>
<stop offset="1" stop-color="#19417F"/>
</linearGradient>
<linearGradient id="paint66_linear_57057_23642" x1="28.5364" y1="0" x2="28.5364" y2="44" gradientUnits="userSpaceOnUse">
<stop stop-color="#73CAEB"/>
<stop offset="0.16" stop-color="#69BCE0"/>
<stop offset="0.44" stop-color="#5197C3"/>
<stop offset="0.83" stop-color="#2B5D95"/>
<stop offset="1" stop-color="#19417F"/>
</linearGradient>
<linearGradient id="paint67_linear_57057_23642" x1="28.971" y1="0" x2="28.971" y2="44" gradientUnits="userSpaceOnUse">
<stop stop-color="#73CAEB"/>
<stop offset="0.16" stop-color="#69BCE0"/>
<stop offset="0.44" stop-color="#5197C3"/>
<stop offset="0.83" stop-color="#2B5D95"/>
<stop offset="1" stop-color="#19417F"/>
</linearGradient>
<linearGradient id="paint68_linear_57057_23642" x1="29.3977" y1="0" x2="29.3977" y2="44" gradientUnits="userSpaceOnUse">
<stop stop-color="#73CAEB"/>
<stop offset="0.16" stop-color="#69BCE0"/>
<stop offset="0.44" stop-color="#5197C3"/>
<stop offset="0.83" stop-color="#2B5D95"/>
<stop offset="1" stop-color="#19417F"/>
</linearGradient>
<linearGradient id="paint69_linear_57057_23642" x1="29.843" y1="0" x2="29.843" y2="44" gradientUnits="userSpaceOnUse">
<stop stop-color="#73CAEB"/>
<stop offset="0.16" stop-color="#69BCE0"/>
<stop offset="0.44" stop-color="#5197C3"/>
<stop offset="0.83" stop-color="#2B5D95"/>
<stop offset="1" stop-color="#19417F"/>
</linearGradient>
<linearGradient id="paint70_linear_57057_23642" x1="30.2776" y1="0" x2="30.2776" y2="44" gradientUnits="userSpaceOnUse">
<stop stop-color="#73CAEB"/>
<stop offset="0.16" stop-color="#69BCE0"/>
<stop offset="0.44" stop-color="#5197C3"/>
<stop offset="0.83" stop-color="#2B5D95"/>
<stop offset="1" stop-color="#19417F"/>
</linearGradient>
<linearGradient id="paint71_linear_57057_23642" x1="30.7063" y1="0" x2="30.7063" y2="44" gradientUnits="userSpaceOnUse">
<stop stop-color="#73CAEB"/>
<stop offset="0.16" stop-color="#69BCE0"/>
<stop offset="0.44" stop-color="#5197C3"/>
<stop offset="0.83" stop-color="#2B5D95"/>
<stop offset="1" stop-color="#19417F"/>
</linearGradient>
<linearGradient id="paint72_linear_57057_23642" x1="31.1418" y1="0" x2="31.1418" y2="44" gradientUnits="userSpaceOnUse">
<stop stop-color="#73CAEB"/>
<stop offset="0.16" stop-color="#69BCE0"/>
<stop offset="0.44" stop-color="#5197C3"/>
<stop offset="0.83" stop-color="#2B5D95"/>
<stop offset="1" stop-color="#19417F"/>
</linearGradient>
<linearGradient id="paint73_linear_57057_23642" x1="31.591" y1="0" x2="31.591" y2="44" gradientUnits="userSpaceOnUse">
<stop stop-color="#73CAEB"/>
<stop offset="0.16" stop-color="#69BCE0"/>
<stop offset="0.44" stop-color="#5197C3"/>
<stop offset="0.83" stop-color="#2B5D95"/>
<stop offset="1" stop-color="#19417F"/>
</linearGradient>
<linearGradient id="paint74_linear_57057_23642" x1="32.0217" y1="0" x2="32.0217" y2="44" gradientUnits="userSpaceOnUse">
<stop stop-color="#73CAEB"/>
<stop offset="0.16" stop-color="#69BCE0"/>
<stop offset="0.44" stop-color="#5197C3"/>
<stop offset="0.83" stop-color="#2B5D95"/>
<stop offset="1" stop-color="#19417F"/>
</linearGradient>
<linearGradient id="paint75_linear_57057_23642" x1="32.4543" y1="0" x2="32.4543" y2="44" gradientUnits="userSpaceOnUse">
<stop stop-color="#73CAEB"/>
<stop offset="0.16" stop-color="#69BCE0"/>
<stop offset="0.44" stop-color="#5197C3"/>
<stop offset="0.83" stop-color="#2B5D95"/>
<stop offset="1" stop-color="#19417F"/>
</linearGradient>
<linearGradient id="paint76_linear_57057_23642" x1="32.8782" y1="0" x2="32.8782" y2="44" gradientUnits="userSpaceOnUse">
<stop stop-color="#73CAEB"/>
<stop offset="0.16" stop-color="#69BCE0"/>
<stop offset="0.44" stop-color="#5197C3"/>
<stop offset="0.83" stop-color="#2B5D95"/>
<stop offset="1" stop-color="#19417F"/>
</linearGradient>
<linearGradient id="paint77_linear_57057_23642" x1="33.3284" y1="0" x2="33.3284" y2="44" gradientUnits="userSpaceOnUse">
<stop stop-color="#73CAEB"/>
<stop offset="0.16" stop-color="#69BCE0"/>
<stop offset="0.44" stop-color="#5197C3"/>
<stop offset="0.83" stop-color="#2B5D95"/>
<stop offset="1" stop-color="#19417F"/>
</linearGradient>
<linearGradient id="paint78_linear_57057_23642" x1="33.7571" y1="0" x2="33.7571" y2="44" gradientUnits="userSpaceOnUse">
<stop stop-color="#73CAEB"/>
<stop offset="0.16" stop-color="#69BCE0"/>
<stop offset="0.44" stop-color="#5197C3"/>
<stop offset="0.83" stop-color="#2B5D95"/>
<stop offset="1" stop-color="#19417F"/>
</linearGradient>
<linearGradient id="paint79_linear_57057_23642" x1="34.2024" y1="0" x2="34.2024" y2="44" gradientUnits="userSpaceOnUse">
<stop stop-color="#73CAEB"/>
<stop offset="0.16" stop-color="#69BCE0"/>
<stop offset="0.44" stop-color="#5197C3"/>
<stop offset="0.83" stop-color="#2B5D95"/>
<stop offset="1" stop-color="#19417F"/>
</linearGradient>
<linearGradient id="paint80_linear_57057_23642" x1="34.6223" y1="0" x2="34.6223" y2="44" gradientUnits="userSpaceOnUse">
<stop stop-color="#73CAEB"/>
<stop offset="0.16" stop-color="#69BCE0"/>
<stop offset="0.44" stop-color="#5197C3"/>
<stop offset="0.83" stop-color="#2B5D95"/>
<stop offset="1" stop-color="#19417F"/>
</linearGradient>
<linearGradient id="paint81_linear_57057_23642" x1="35.0686" y1="0" x2="35.0686" y2="44" gradientUnits="userSpaceOnUse">
<stop stop-color="#73CAEB"/>
<stop offset="0.16" stop-color="#69BCE0"/>
<stop offset="0.44" stop-color="#5197C3"/>
<stop offset="0.83" stop-color="#2B5D95"/>
<stop offset="1" stop-color="#19417F"/>
</linearGradient>
<linearGradient id="paint82_linear_57057_23642" x1="35.5012" y1="0" x2="35.5012" y2="44" gradientUnits="userSpaceOnUse">
<stop stop-color="#73CAEB"/>
<stop offset="0.16" stop-color="#69BCE0"/>
<stop offset="0.44" stop-color="#5197C3"/>
<stop offset="0.83" stop-color="#2B5D95"/>
<stop offset="1" stop-color="#19417F"/>
</linearGradient>
<linearGradient id="paint83_linear_57057_23642" x1="35.9504" y1="0" x2="35.9504" y2="44" gradientUnits="userSpaceOnUse">
<stop stop-color="#73CAEB"/>
<stop offset="0.16" stop-color="#69BCE0"/>
<stop offset="0.44" stop-color="#5197C3"/>
<stop offset="0.83" stop-color="#2B5D95"/>
<stop offset="1" stop-color="#19417F"/>
</linearGradient>
<linearGradient id="paint84_linear_57057_23642" x1="36.3792" y1="0" x2="36.3792" y2="44" gradientUnits="userSpaceOnUse">
<stop stop-color="#73CAEB"/>
<stop offset="0.16" stop-color="#69BCE0"/>
<stop offset="0.44" stop-color="#5197C3"/>
<stop offset="0.83" stop-color="#2B5D95"/>
<stop offset="1" stop-color="#19417F"/>
</linearGradient>
<linearGradient id="paint85_linear_57057_23642" x1="36.7883" y1="0" x2="36.7883" y2="44" gradientUnits="userSpaceOnUse">
<stop stop-color="#73CAEB"/>
<stop offset="0.16" stop-color="#69BCE0"/>
<stop offset="0.44" stop-color="#5197C3"/>
<stop offset="0.83" stop-color="#2B5D95"/>
<stop offset="1" stop-color="#19417F"/>
</linearGradient>
<linearGradient id="paint86_linear_57057_23642" x1="37.2375" y1="0" x2="37.2375" y2="44" gradientUnits="userSpaceOnUse">
<stop stop-color="#73CAEB"/>
<stop offset="0.16" stop-color="#69BCE0"/>
<stop offset="0.44" stop-color="#5197C3"/>
<stop offset="0.83" stop-color="#2B5D95"/>
<stop offset="1" stop-color="#19417F"/>
</linearGradient>
<linearGradient id="paint87_linear_57057_23642" x1="37.675" y1="0" x2="37.675" y2="44" gradientUnits="userSpaceOnUse">
<stop stop-color="#73CAEB"/>
<stop offset="0.16" stop-color="#69BCE0"/>
<stop offset="0.44" stop-color="#5197C3"/>
<stop offset="0.83" stop-color="#2B5D95"/>
<stop offset="1" stop-color="#19417F"/>
</linearGradient>
<linearGradient id="paint88_linear_57057_23642" x1="38.1233" y1="0" x2="38.1233" y2="44" gradientUnits="userSpaceOnUse">
<stop stop-color="#73CAEB"/>
<stop offset="0.16" stop-color="#69BCE0"/>
<stop offset="0.44" stop-color="#5197C3"/>
<stop offset="0.83" stop-color="#2B5D95"/>
<stop offset="1" stop-color="#19417F"/>
</linearGradient>
<linearGradient id="paint89_linear_57057_23642" x1="38.5442" y1="0" x2="38.5442" y2="44" gradientUnits="userSpaceOnUse">
<stop stop-color="#73CAEB"/>
<stop offset="0.16" stop-color="#69BCE0"/>
<stop offset="0.44" stop-color="#5197C3"/>
<stop offset="0.83" stop-color="#2B5D95"/>
<stop offset="1" stop-color="#19417F"/>
</linearGradient>
<linearGradient id="paint90_linear_57057_23642" x1="38.9778" y1="0" x2="38.9778" y2="44" gradientUnits="userSpaceOnUse">
<stop stop-color="#73CAEB"/>
<stop offset="0.16" stop-color="#69BCE0"/>
<stop offset="0.44" stop-color="#5197C3"/>
<stop offset="0.83" stop-color="#2B5D95"/>
<stop offset="1" stop-color="#19417F"/>
</linearGradient>
<linearGradient id="paint91_linear_57057_23642" x1="39.4241" y1="0" x2="39.4241" y2="44" gradientUnits="userSpaceOnUse">
<stop stop-color="#73CAEB"/>
<stop offset="0.16" stop-color="#69BCE0"/>
<stop offset="0.44" stop-color="#5197C3"/>
<stop offset="0.83" stop-color="#2B5D95"/>
<stop offset="1" stop-color="#19417F"/>
</linearGradient>
<linearGradient id="paint92_linear_57057_23642" x1="39.8547" y1="0" x2="39.8547" y2="44" gradientUnits="userSpaceOnUse">
<stop stop-color="#73CAEB"/>
<stop offset="0.16" stop-color="#69BCE0"/>
<stop offset="0.44" stop-color="#5197C3"/>
<stop offset="0.83" stop-color="#2B5D95"/>
<stop offset="1" stop-color="#19417F"/>
</linearGradient>
<linearGradient id="paint93_linear_57057_23642" x1="40.2883" y1="0" x2="40.2883" y2="44" gradientUnits="userSpaceOnUse">
<stop stop-color="#73CAEB"/>
<stop offset="0.16" stop-color="#69BCE0"/>
<stop offset="0.44" stop-color="#5197C3"/>
<stop offset="0.83" stop-color="#2B5D95"/>
<stop offset="1" stop-color="#19417F"/>
</linearGradient>
<linearGradient id="paint94_linear_57057_23642" x1="40.7336" y1="0" x2="40.7336" y2="44" gradientUnits="userSpaceOnUse">
<stop stop-color="#73CAEB"/>
<stop offset="0.16" stop-color="#69BCE0"/>
<stop offset="0.44" stop-color="#5197C3"/>
<stop offset="0.83" stop-color="#2B5D95"/>
<stop offset="1" stop-color="#19417F"/>
</linearGradient>
<linearGradient id="paint95_linear_57057_23642" x1="41.1643" y1="0" x2="41.1643" y2="44" gradientUnits="userSpaceOnUse">
<stop stop-color="#73CAEB"/>
<stop offset="0.16" stop-color="#69BCE0"/>
<stop offset="0.44" stop-color="#5197C3"/>
<stop offset="0.83" stop-color="#2B5D95"/>
<stop offset="1" stop-color="#19417F"/>
</linearGradient>
<linearGradient id="paint96_linear_57057_23642" x1="41.6067" y1="0" x2="41.6067" y2="44" gradientUnits="userSpaceOnUse">
<stop stop-color="#73CAEB"/>
<stop offset="0.16" stop-color="#69BCE0"/>
<stop offset="0.44" stop-color="#5197C3"/>
<stop offset="0.83" stop-color="#2B5D95"/>
<stop offset="1" stop-color="#19417F"/>
</linearGradient>
<linearGradient id="paint97_linear_57057_23642" x1="42.0364" y1="0" x2="42.0364" y2="44" gradientUnits="userSpaceOnUse">
<stop stop-color="#73CAEB"/>
<stop offset="0.16" stop-color="#69BCE0"/>
<stop offset="0.44" stop-color="#5197C3"/>
<stop offset="0.83" stop-color="#2B5D95"/>
<stop offset="1" stop-color="#19417F"/>
</linearGradient>
<linearGradient id="paint98_linear_57057_23642" x1="42.4866" y1="0" x2="42.4866" y2="44" gradientUnits="userSpaceOnUse">
<stop stop-color="#73CAEB"/>
<stop offset="0.16" stop-color="#69BCE0"/>
<stop offset="0.44" stop-color="#5197C3"/>
<stop offset="0.83" stop-color="#2B5D95"/>
<stop offset="1" stop-color="#19417F"/>
</linearGradient>
<linearGradient id="paint99_linear_57057_23642" x1="42.9074" y1="0" x2="42.9074" y2="44" gradientUnits="userSpaceOnUse">
<stop stop-color="#73CAEB"/>
<stop offset="0.16" stop-color="#69BCE0"/>
<stop offset="0.44" stop-color="#5197C3"/>
<stop offset="0.83" stop-color="#2B5D95"/>
<stop offset="1" stop-color="#19417F"/>
</linearGradient>
<linearGradient id="paint100_linear_57057_23642" x1="43.3391" y1="0" x2="43.3391" y2="44" gradientUnits="userSpaceOnUse">
<stop stop-color="#73CAEB"/>
<stop offset="0.16" stop-color="#69BCE0"/>
<stop offset="0.44" stop-color="#5197C3"/>
<stop offset="0.83" stop-color="#2B5D95"/>
<stop offset="1" stop-color="#19417F"/>
</linearGradient>
<linearGradient id="paint101_linear_57057_23642" x1="43.7805" y1="0" x2="43.7805" y2="44" gradientUnits="userSpaceOnUse">
<stop stop-color="#73CAEB"/>
<stop offset="0.16" stop-color="#69BCE0"/>
<stop offset="0.44" stop-color="#5197C3"/>
<stop offset="0.83" stop-color="#2B5D95"/>
<stop offset="1" stop-color="#19417F"/>
</linearGradient>
<linearGradient id="paint102_linear_57057_23642" x1="55.9942" y1="21.996" x2="127.123" y2="21.996" gradientUnits="userSpaceOnUse">
<stop stop-color="#033884"/>
<stop offset="0.41" stop-color="#2E70AB"/>
<stop offset="1" stop-color="#73CAEB"/>
</linearGradient>
</defs>
</svg>
