<svg width="140" height="40" viewBox="0 0 140 40" fill="none" xmlns="http://www.w3.org/2000/svg">
<rect width="140" height="40" rx="8" fill="#03428D"/>
<rect x="10" y="4" width="32" height="32" rx="16" fill="#03428D"/>
<path d="M33.892 7.61934C33.892 7.61934 27.0581 6.29352 25.2969 12.48C25.2969 12.48 32.0058 14.7296 33.892 7.61934Z" fill="#37A9DC"/>
<path d="M33.4354 29.3245C35.0895 27.5646 36.0728 25.2102 35.9958 22.6388C35.8418 17.4873 31.374 13.3366 25.9933 13.3398C20.3648 13.3431 15.8234 17.8027 16.0053 23.2343C16.1716 28.2072 20.367 32.2756 25.5558 32.4905C27.7768 32.5824 29.8483 31.9805 31.5481 30.8899L28.5291 26.5884C27.7578 27.0803 26.8237 27.3519 25.8169 27.3144C23.4519 27.2268 21.5144 25.3792 21.4117 23.1135C21.2934 20.4929 23.5736 18.3502 26.3236 18.5319C28.5469 18.6784 30.3662 20.3806 30.5704 22.5062C30.5715 22.5233 30.5738 22.5404 30.5749 22.5575C30.7389 24.5174 31.3896 26.4109 32.5348 28.0426L33.4343 29.3235L33.4354 29.3245Z" fill="#37A9DC"/>
<path d="M80.6392 18.0703V23.9204H98.9999V26.0166C98.9999 26.0166 98.5048 27.5281 96.576 27.3325H77.4805V18.0703H80.6392Z" fill="white"/>
<path d="M76.3738 18.0703H72.7129V27.3507C72.7129 27.3507 76.0437 27.3818 76.3738 25.4318V18.0703Z" fill="white"/>
<path d="M57.4752 18.005H67.6994C67.6994 18.005 71.3928 18.281 71.657 21.5642C71.9213 24.8465 71.657 27.2854 71.657 27.2854H56.4032C56.4032 27.2854 54.0934 27.2317 52.7257 24.792C52.4816 24.3569 52.3402 23.875 52.2683 23.3827C52.1638 22.6716 51.7152 21.4145 49.8487 21.4673C49.8487 21.4673 48.1912 21.5408 48.1912 23.1249C48.1912 24.709 48.3396 27.756 45 27.3909V22.085C45 22.085 45.0413 18.2827 50.0217 18.0059C50.0217 18.0059 54.9029 17.665 55.4964 22.1819C55.4964 22.1819 55.7606 23.888 57.9036 24.0022C60.0466 24.1164 68.3253 24.0022 68.3253 24.0022C68.3253 24.0022 68.9522 21.4673 67.1709 21.4024H60.2116C60.2116 21.4024 57.5401 21.11 57.4743 18.0059L57.4752 18.005Z" fill="white"/>
<path d="M68.9456 30.0812C68.9456 31.1402 68.0747 31.9984 67.0002 31.9984C66.1442 31.9984 65.4173 31.4525 65.1574 30.6955C64.8976 31.4525 64.1706 31.9984 63.3147 31.9984C62.5193 31.9984 61.8363 31.5286 61.5334 30.8538C61.2314 31.5286 60.5484 31.9984 59.7521 31.9984C58.6775 31.9984 57.8066 31.1402 57.8066 30.0812C57.8066 29.0223 58.6775 28.1641 59.7521 28.1641C60.5475 28.1641 61.2305 28.6338 61.5334 29.3086C61.8354 28.6338 62.5184 28.1641 63.3147 28.1641C64.1706 28.1641 64.8976 28.71 65.1574 29.467C65.4173 28.71 66.1442 28.1641 67.0002 28.1641C68.0747 28.1641 68.9456 29.0223 68.9456 30.0812Z" fill="white"/>
<path d="M74.5451 31.9984C75.6195 31.9984 76.4905 31.14 76.4905 30.0812C76.4905 29.0224 75.6195 28.1641 74.5451 28.1641C73.4706 28.1641 72.5996 29.0224 72.5996 30.0812C72.5996 31.14 73.4706 31.9984 74.5451 31.9984Z" fill="white"/>
<path d="M84.8997 30.0812C84.8997 31.1402 84.0288 31.9984 82.9542 31.9984C82.1026 31.9984 81.3783 31.4594 81.1158 30.7076C80.8533 31.4594 80.1291 31.9984 79.2775 31.9984C78.2029 31.9984 77.332 31.1402 77.332 30.0812C77.332 29.0223 78.2029 28.1641 79.2775 28.1641C80.1291 28.1641 80.8533 28.703 81.1158 29.4549C81.3783 28.703 82.1026 28.1641 82.9542 28.1641C84.0288 28.1641 84.8997 29.0223 84.8997 30.0812Z" fill="white"/>
<path d="M89.726 15.3999C89.726 15.8999 89.5241 16.1999 89.2212 16.4999C88.9183 16.8 88.4135 16.9 87.7067 16.9H87L87.2019 18H88.1106C88.5145 18 88.9183 17.9 89.2212 17.8C89.5241 17.7 89.827 17.4 90.0289 17.2C90.2308 16.9 90.4327 16.5999 90.5337 16.2999C90.6347 15.8999 90.7356 15.5999 90.7356 15.1999V12.0998H89.625V15.3999H89.726Z" fill="white"/>
<path d="M90.3318 9.19939C90.1298 9.19939 89.9279 9.29939 89.726 9.3994C89.5241 9.59941 89.524 9.69941 89.524 9.99942C89.524 10.1994 89.625 10.3994 89.726 10.5994C89.9279 10.7995 90.1298 10.7995 90.3318 10.7995C90.5337 10.7995 90.7356 10.6994 90.9375 10.5994C91.1395 10.3994 91.1395 10.1994 91.1395 9.99942C91.1395 9.79941 91.0385 9.59941 90.9375 9.3994C90.7356 9.29939 90.5337 9.19939 90.3318 9.19939Z" fill="white"/>
<path d="M93.5626 8.50007H92.553V15.3003H93.5626V8.50007Z" fill="white"/>
<path d="M100.63 11.0994C100.832 11.0994 100.933 10.9994 101.135 10.8994C101.235 10.7994 101.336 10.5994 101.336 10.3994C101.336 10.1993 101.235 9.99934 101.135 9.89934C101.034 9.79933 100.832 9.69933 100.63 9.69933C100.428 9.69933 100.226 9.79933 100.125 9.89934C100.024 9.99934 99.923 10.1993 99.923 10.3994C99.923 10.5994 100.024 10.6994 100.125 10.8994C100.226 10.9994 100.428 11.0994 100.63 11.0994Z" fill="white"/>
<path d="M102.548 11.0994C102.75 11.0994 102.952 10.9994 103.053 10.8994C103.154 10.7994 103.255 10.5994 103.255 10.3994C103.255 10.1993 103.154 9.99934 103.053 9.89934C102.952 9.79933 102.75 9.69933 102.548 9.69933C102.346 9.69933 102.145 9.79933 102.044 9.89934C101.943 9.99934 101.842 10.1993 101.842 10.3994C101.842 10.5994 101.943 10.6994 102.044 10.8994C102.145 10.9994 102.346 11.0994 102.548 11.0994Z" fill="white"/>
<path d="M109.817 9.60006C110.019 9.60006 110.221 9.50005 110.423 9.40005C110.625 9.20004 110.625 9.00003 110.625 8.80003C110.625 8.60002 110.524 8.40001 110.423 8.20001C110.221 8 110.12 8 109.817 8C109.615 8 109.413 8.1 109.212 8.20001C109.01 8.40001 109.01 8.50002 109.01 8.80003C109.01 9.00003 109.111 9.20004 109.212 9.40005C109.413 9.50005 109.615 9.60006 109.817 9.60006Z" fill="white"/>
<path d="M111.433 10.7998C111.231 10.5998 111.029 10.3998 110.827 10.2998C110.625 10.1998 110.322 10.0998 110.02 10.0998C109.717 10.0998 109.515 10.0998 109.313 10.1998C109.111 10.2998 108.909 10.3998 108.707 10.5998C108.505 10.7998 108.404 10.8998 108.303 11.1998C108.202 11.3998 108.202 11.5998 108.202 11.8998C108.202 12.3999 108.303 12.6999 108.505 12.9999C108.707 13.2999 109.111 13.4999 109.515 13.4999H110.928C110.928 13.6999 110.928 13.7999 110.827 13.9999C110.726 14.0999 110.524 14.1999 110.221 14.1999H107.193C106.991 14.1999 106.789 14.0999 106.587 13.9999C106.385 13.8999 106.284 13.6999 106.284 13.3999V11.8998H105.173V13.3999C105.173 13.6999 105.173 13.8999 105.072 13.9999C104.971 14.0999 104.77 14.1999 104.467 14.1999H99.3176C99.0147 14.1999 98.8128 14.0999 98.7118 13.9999C98.5099 13.8999 98.4089 13.6999 98.4089 13.3999V11.9998H97.2983V13.5999C97.2983 14.0999 97.3993 14.5999 97.7022 14.8999C98.0051 15.2 98.3079 15.3 98.8128 15.3H104.467C104.87 15.3 105.173 15.2 105.476 14.8999C105.678 15.1 105.88 15.2 106.183 15.2C106.385 15.3 106.688 15.3 106.991 15.3H110.221C110.524 15.3 110.726 15.2 110.928 15.1C111.13 14.9999 111.332 14.7999 111.433 14.5999C111.534 14.3999 111.635 14.1999 111.736 13.8999C111.837 13.5999 111.837 13.3999 111.837 13.0999V12.3999C111.837 12.0998 111.837 11.7998 111.736 11.5998C111.635 11.2998 111.534 10.9998 111.433 10.7998ZM109.717 12.3999C109.616 12.3999 109.414 12.3999 109.212 12.2998C109.01 12.1998 109.01 12.0998 109.01 11.8998C109.01 11.6998 109.111 11.4998 109.212 11.3998C109.313 11.2998 109.515 11.1998 109.818 11.1998C110.02 11.1998 110.121 11.1998 110.221 11.2998C110.322 11.3998 110.423 11.4998 110.524 11.5998C110.625 11.6998 110.726 11.8998 110.726 11.9998C110.827 12.1998 110.827 12.2998 110.827 12.4999L109.717 12.3999Z" fill="white"/>
<path d="M115.774 16.5004C115.572 16.5004 115.37 16.6004 115.269 16.7004C115.168 16.8004 115.067 17.0004 115.067 17.2004C115.067 17.4004 115.168 17.6004 115.269 17.7004C115.37 17.8004 115.572 17.9004 115.774 17.9004C115.976 17.9004 116.178 17.8004 116.279 17.7004C116.38 17.6004 116.481 17.4004 116.481 17.2004C116.481 17.0004 116.38 16.9004 116.279 16.7004C116.178 16.5004 115.976 16.5004 115.774 16.5004Z" fill="white"/>
<path d="M117.894 13.4003C117.894 13.5003 117.894 13.6003 117.894 13.7003C117.894 13.8003 117.894 13.9003 117.793 14.0003C117.692 14.1003 117.692 14.1003 117.591 14.2003C117.49 14.2003 117.39 14.3003 117.188 14.3003H115.471C115.168 14.3003 115.067 14.2003 114.865 14.1003C114.764 14.0003 114.664 13.8003 114.664 13.4003V8.50007H113.553V13.6003C113.553 14.2003 113.755 14.7003 114.058 14.9003C114.361 15.2003 114.764 15.3003 115.37 15.3003H117.49C117.995 15.3003 118.399 15.1003 118.702 14.8003C119.005 14.5003 119.106 14.1003 119.106 13.6003V12.0002H117.995V13.4003H117.894Z" fill="white"/>
<path d="M117.591 16.5004C117.389 16.5004 117.187 16.6004 117.086 16.7004C116.985 16.8004 116.884 17.0004 116.884 17.2004C116.884 17.4004 116.985 17.6004 117.086 17.7004C117.187 17.8004 117.389 17.9004 117.591 17.9004C117.793 17.9004 117.894 17.8004 118.096 17.7004C118.197 17.6004 118.298 17.4004 118.298 17.2004C118.298 17.0004 118.197 16.9004 118.096 16.7004C117.995 16.5004 117.793 16.5004 117.591 16.5004Z" fill="white"/>
<path d="M121.428 15.3999C121.428 15.8999 121.226 16.1999 120.923 16.4999C120.62 16.8 120.116 16.9 119.409 16.9H119.106L119.308 18H119.813C120.216 18 120.62 17.9 120.923 17.8C121.226 17.7 121.529 17.5 121.731 17.2C121.933 16.9 122.135 16.5999 122.236 16.2999C122.337 15.8999 122.438 15.5999 122.438 15.1999V12.0998H121.327V15.3999H121.428Z" fill="white"/>
<path d="M128.899 13.2995C128.798 13.0995 128.697 12.8995 128.495 12.6995L126.072 10.1994L125.365 10.8994L127.788 13.3995C127.889 13.4995 127.99 13.6995 127.99 13.7995C127.99 13.8995 127.99 13.9995 127.889 14.0995C127.788 14.1995 127.687 14.1995 127.486 14.1995H123.952L124.053 15.2996H127.385C127.889 15.2996 128.293 15.1996 128.596 14.8996C128.899 14.5996 129 14.2995 129 13.8995C129 13.6995 129 13.4995 128.899 13.2995Z" fill="white"/>
</svg>
